<?xml version="1.0" encoding="UTF-8"?>
<svg width="53px" height="40px" viewBox="0 0 53 40" version="1.1" xmlns="http://www.w3.org/2000/svg" xmlns:xlink="http://www.w3.org/1999/xlink">
    <!-- Generator: sketchtool 41 (35326) - http://www.bohemiancoding.com/sketch -->
    <title>A59059AD-76B6-4303-8A4E-018109A662DB</title>
    <desc>Created with sketchtool.</desc>
    <defs></defs>
    <g id="Final" stroke="none" stroke-width="1" fill="none" fill-rule="evenodd">
        <g id="Main_Not-Signed-In_2" transform="translate(-1086.000000, -524.000000)" stroke-width="2" stroke="#535353">
            <g id="Group-5-Copy-2" transform="translate(909.000000, 525.000000)">
                <g id="Group-14">
                    <g id="cart.4" transform="translate(179.000000, 0.000000)">
                        <g id="Cart">
                            <g id="filled">
                                <g id="Cart">
                                    <circle id="Oval-1329" fill="#D8D8D8" cx="9" cy="35" r="3"></circle>
                                    <circle id="Oval-1329" fill="#D8D8D8" cx="34" cy="35" r="3"></circle>
                                    <path d="M0,4 L43,4 L41,26 L2,22 L0,4 Z M7,9.99961498 C7,8.89525812 7.88772964,8 9,8 C10.1045695,8 11,8.88743329 11,9.99961498 L11,16.000385 C11,17.1047419 10.1122704,18 9,18 C7.8954305,18 7,17.1125667 7,16.000385 L7,9.99961498 Z M19,9.99961498 C19,8.89525812 19.8877296,8 21,8 C22.1045695,8 23,8.88743329 23,9.99961498 L23,16.000385 C23,17.1047419 22.1122704,18 21,18 C19.8954305,18 19,17.1125667 19,16.000385 L19,9.99961498 Z M31,9.99961498 C31,8.89525812 31.8877296,8 33,8 C34.1045695,8 35,8.88743329 35,9.99961498 L35,16.000385 C35,17.1047419 34.1122704,18 33,18 C31.8954305,18 31,17.1125667 31,16.000385 L31,9.99961498 Z" id="Rectangle-1449" fill="#D8D8D8"></path>
                                    <polyline id="Path-3188" points="41 25.4939416 41 29.0643462 3.2736947 29.0643462"></polyline>
                                    <polyline id="Path-3189" points="42.9263446 5.94713879 43.594948 0 50.6128767 0"></polyline>
                                </g>
                            </g>
                        </g>
                    </g>
                </g>
            </g>
        </g>
    </g>
</svg>