<?xml version="1.0" encoding="UTF-8"?>
<svg width="16px" height="17px" viewBox="0 0 16 17" version="1.1" xmlns="http://www.w3.org/2000/svg" xmlns:xlink="http://www.w3.org/1999/xlink">
    <!-- Generator: Sketch 40.2 (33826) - http://www.bohemiancoding.com/sketch -->
    <title>Icon</title>
    <desc>Created with Sketch.</desc>
    <defs></defs>
    <g id="Final" stroke="none" stroke-width="1" fill="none" fill-rule="evenodd">
        <g id="Messages" transform="translate(-1273.000000, -254.000000)" fill="#7F8FA4">
            <g id="Group" transform="translate(105.000000, 187.033833)">
                <g id="Secondary-Bar" transform="translate(0.000000, 41.000000)">
                    <g id="Group-3" transform="translate(1096.000000, 19.000000)">
                        <g id="Actions">
                            <path d="M77.9999,19.0001 C77.4479,19.0001 76.9999,18.5521 76.9999,18.0001 L76.9999,15.0001 C76.9999,14.4481 77.4479,14.0001 77.9999,14.0001 C78.5519,14.0001 78.9999,14.4481 78.9999,15.0001 L78.9999,18.0001 C78.9999,18.5521 78.5519,19.0001 77.9999,19.0001 L77.9999,19.0001 Z M81.9999,19.0001 C81.4479,19.0001 80.9999,18.5521 80.9999,18.0001 L80.9999,15.0001 C80.9999,14.4481 81.4479,14.0001 81.9999,14.0001 C82.5519,14.0001 82.9999,14.4481 82.9999,15.0001 L82.9999,18.0001 C82.9999,18.5521 82.5519,19.0001 81.9999,19.0001 L81.9999,19.0001 Z M82.9999,12.0001 L76.9999,12.0001 L74.9999,12.0001 L75.9999,20.0001 C75.9999,20.5521 76.4479,21.0001 76.9999,21.0001 L82.9999,21.0001 C83.5519,21.0001 83.9999,20.5521 83.9999,20.0001 L84.9999,12.0001 L82.9999,12.0001 Z M79.9999,9.0001 C79.4479,9.0001 78.9999,9.4481 78.9999,10.0001 L80.9999,10.0001 C80.9999,9.4481 80.5519,9.0001 79.9999,9.0001 L79.9999,9.0001 Z M86.9999,12.0001 L85.9999,21.0001 C85.9999,22.1051 85.1049,23.0001 83.9999,23.0001 L75.9999,23.0001 C74.8949,23.0001 73.9999,22.1051 73.9999,21.0001 L72.9999,12.0001 C72.4479,12.0001 71.9999,11.5521 71.9999,11.0001 C71.9999,10.4481 72.4479,10.0001 72.9999,10.0001 L76.9999,10.0001 L76.9999,8.0001 C76.9999,7.4481 77.4479,7.0001 77.9999,7.0001 L81.9999,7.0001 C82.5519,7.0001 82.9999,7.4481 82.9999,8.0001 L82.9999,10.0001 L86.9999,10.0001 C87.5519,10.0001 87.9999,10.4481 87.9999,11.0001 C87.9999,11.5521 87.5519,12.0001 86.9999,12.0001 L86.9999,12.0001 Z" id="Icon"></path>
                        </g>
                    </g>
                </g>
            </g>
        </g>
    </g>
</svg>