<?xml version="1.0" encoding="UTF-8"?>
<svg width="6px" height="12px" viewBox="0 0 6 12" version="1.1" xmlns="http://www.w3.org/2000/svg" xmlns:xlink="http://www.w3.org/1999/xlink">
    <!-- Generator: sketchtool 40.1 (33804) - http://www.bohemiancoding.com/sketch -->
    <title>06E0CF0A-D1B0-4FDE-A2A5-5982E06F0BA9</title>
    <desc>Created with sketchtool.</desc>
    <defs></defs>
    <g id="Final" stroke="none" stroke-width="1" fill="none" fill-rule="evenodd">
        <g id="Story-Page-MAP-option-2" transform="translate(-419.000000, -4557.000000)" fill="#FFFFFF">
            <g id="Group-26" transform="translate(0.000000, 133.000000)">
                <g id="Tags-and-Share" transform="translate(241.000000, 4359.000000)">
                    <g id="FB-Share-Button" transform="translate(153.000000, 56.000000)">
                        <path d="M30.6721311,11.1223404 C30.3442623,11.0265957 29.9672131,10.962766 29.6229508,10.962766 C29.1967213,10.962766 28.2786885,11.2340426 28.2786885,11.7606383 L28.2786885,13.0212766 L30.4590164,13.0212766 L30.4590164,15.143617 L28.2786885,15.143617 L28.2786885,21 L26.0819672,21 L26.0819672,15.143617 L25,15.143617 L25,13.0212766 L26.0819672,13.0212766 L26.0819672,11.9521277 C26.0819672,10.3404255 26.8360656,9 28.6557377,9 C29.2786885,9 30.3934426,9.03191489 31,9.2393617 L30.6721311,11.1223404 Z" id="Facebook-Icon"></path>
                    </g>
                </g>
            </g>
        </g>
    </g>
</svg>