<?xml version="1.0" encoding="UTF-8"?>
<svg width="17px" height="17px" viewBox="0 0 17 17" version="1.1" xmlns="http://www.w3.org/2000/svg" xmlns:xlink="http://www.w3.org/1999/xlink">
    <!-- Generator: sketchtool 40.1 (33804) - http://www.bohemiancoding.com/sketch -->
    <title>083D8770-DACF-42F0-BDBC-9B12D80343A8</title>
    <desc>Created with sketchtool.</desc>
    <defs></defs>
    <g id="Final" stroke="none" stroke-width="1" fill="none" fill-rule="evenodd">
        <g id="Story-Page-MAP-option-2" transform="translate(-1033.000000, -3012.000000)" fill="#FFFFFF">
            <g id="Group-26" transform="translate(0.000000, 133.000000)">
                <g id="Group-3" transform="translate(996.000000, 2713.477883)">
                    <g id="Share" transform="translate(25.159137, 111.906992)">
                        <g id="g" transform="translate(0.000000, 47.322876)">
                            <path d="M28.1,10.3939417 L25.9787961,10.3939417 L25.9787961,12.5151845 L24.9181748,12.5151845 L24.9181748,10.3939417 L22.796932,10.3939417 L22.796932,9.33332039 L24.9181748,9.33332039 L24.9181748,7.21215534 L25.9787961,7.21215534 L25.9787961,9.33335922 L28.1,9.33335922 L28.1,10.3939417 L28.1,10.3939417 Z M22.1032233,19.1672621 C22.1032233,20.7572816 20.6514175,22.6929709 16.9989903,22.6929709 C14.327767,22.6929709 12.1,21.5408155 12.1,19.6029126 C12.1,18.1072233 13.0469126,16.1655922 17.471767,16.1655922 C16.8146019,15.6299806 16.6533204,14.8810485 17.0549515,14.0700971 C14.4641165,14.0700971 13.1373204,12.5469126 13.1373204,10.6128932 C13.1373204,8.72042718 14.5447767,7 17.4149903,7 L22.0129709,7 L20.9855146,8.0784466 L19.7785631,8.0784466 C20.6300194,8.56629126 21.0828738,9.57099029 21.0828738,10.6784078 C21.0828738,11.6949126 20.5231456,12.5182136 19.7243107,13.1358447 C18.3067184,14.2318447 18.6696311,14.8438058 20.1548738,15.9269903 C21.6192621,17.0241165 22.1032233,17.8710291 22.1032233,19.1672621 L22.1032233,19.1672621 Z M19.2354563,10.7475728 C19.0216311,9.12019417 17.9614369,7.78508738 16.7226796,7.74784466 C15.4834951,7.71099029 14.6524272,8.95634951 14.8664466,10.5841553 C15.0803883,12.211534 16.2580583,13.3483495 17.4974757,13.3856699 C18.7361942,13.4225243 19.4492039,12.3751456 19.2354563,10.7475728 L19.2354563,10.7475728 Z M20.5128544,19.3304854 C20.5128544,17.992 19.2918447,16.716233 17.2432621,16.716233 C15.3969709,16.6959223 13.8323107,17.8829126 13.8323107,19.2587961 C13.8323107,20.662835 15.1657087,21.8316117 17.0120777,21.8316117 C19.3725049,21.8315728 20.5128544,20.7345243 20.5128544,19.3304854 L20.5128544,19.3304854 Z" id="Imported-Layers-Copy"></path>
                        </g>
                    </g>
                </g>
            </g>
        </g>
    </g>
</svg>