<?xml version="1.0" encoding="UTF-8"?>
<svg width="16px" height="17px" viewBox="0 0 16 17" version="1.1" xmlns="http://www.w3.org/2000/svg" xmlns:xlink="http://www.w3.org/1999/xlink">
    <!-- Generator: sketchtool 40.1 (33804) - http://www.bohemiancoding.com/sketch -->
    <title>67CFDEE9-F14A-4ABD-A350-EEA5F1C4B517</title>
    <desc>Created with sketchtool.</desc>
    <defs></defs>
    <g id="Final" stroke="none" stroke-width="1" fill="none" fill-rule="evenodd">
        <g id="Messages" transform="translate(-445.000000, -253.000000)" fill="#A1A7AF">
            <g id="Group" transform="translate(105.000000, 187.033833)">
                <g id="Secondary-Bar" transform="translate(0.000000, 41.000000)">
                    <g id="Search-Box" transform="translate(30.000000, 15.000000)">
                        <path d="M320.5355,13.4645 C318.5825,11.5115 315.4175,11.5115 313.4645,13.4645 C311.5115,15.4175 311.5115,18.5825 313.4645,20.5355 C315.4175,22.4885 318.5825,22.4885 320.5355,20.5355 C322.4885,18.5825 322.4885,15.4175 320.5355,13.4645 M325.7355,25.7355 C325.3445,26.1255 324.7115,26.1255 324.3205,25.7355 L321.1715,22.5855 C318.4295,24.6355 314.5415,24.4415 312.0505,21.9495 C309.3165,19.2165 309.3165,14.7845 312.0505,12.0505 C314.7835,9.3165 319.2165,9.3165 321.9495,12.0505 C324.4415,14.5415 324.6355,18.4295 322.5855,21.1715 L325.7355,24.3215 C326.1255,24.7115 326.1255,25.3445 325.7355,25.7355" id="Icon"></path>
                    </g>
                </g>
            </g>
        </g>
    </g>
</svg>