<?xml version="1.0" encoding="UTF-8"?>
<svg width="16px" height="14px" viewBox="0 0 16 14" version="1.1" xmlns="http://www.w3.org/2000/svg" xmlns:xlink="http://www.w3.org/1999/xlink">
    <!-- Generator: sketchtool 40.1 (33804) - http://www.bohemiancoding.com/sketch -->
    <title>4EE9BF2D-C9E3-408D-ADDF-29107419B112</title>
    <desc>Created with sketchtool.</desc>
    <defs></defs>
    <g id="Final" stroke="none" stroke-width="1" fill="none" fill-rule="evenodd">
        <g id="Main-#1" transform="translate(-519.000000, -2205.000000)" fill="#4A4A4A">
            <g id="Feed4" transform="translate(222.000000, 1946.000000)">
                <g id="Topic2" transform="translate(254.000000, 107.000000)">
                    <g id="Group-2" transform="translate(43.827160, 152.100000)">
                        <g id="Group-17">
                            <g id="members-icon" transform="translate(-0.000000, 0.000000)">
                                <g id="friend" transform="translate(0.000000, 0.038785)">
                                    <g id="Capa_1">
                                        <g id="Group" transform="translate(0.000000, 0.000000)">
                                            <path d="M10.7770977,6.09886233 C12.2097957,6.09886233 13.3710587,5.18200218 13.3710587,4.05121278 C13.3710587,2.92024356 12.2097957,2.00331147 10.7770977,2.00331147 C9.34439969,2.00331147 8.18313675,2.92024356 8.18313675,4.05121278 C8.1830912,5.18200218 9.34439969,6.09886233 10.7770977,6.09886233 L10.7770977,6.09886233 Z" id="Shape"></path>
                                            <path d="M4.19920407,4.26291209 C5.63199319,4.26291209 6.79316504,3.34598001 6.79316504,2.21526255 C6.79316504,1.08422139 5.63199319,0.167361233 4.19920407,0.167361233 C2.76650604,0.167361233 1.6053342,1.08422139 1.6053342,2.21526255 C1.6053342,3.34594404 2.76650604,4.26291209 4.19920407,4.26291209 L4.19920407,4.26291209 Z" id="Shape"></path>
                                            <path d="M8.01683209,6.84786644 C7.35448312,5.70416504 5.89582135,4.90779294 4.19920407,4.90779294 C1.88036776,4.90775697 0,6.39224175 0,8.22351633 L0,10.7810641 C0,11.2932283 0.525469889,11.7082467 1.17383487,11.7082467 L5.85933544,11.7082467 L5.85933544,10.0594666 C5.85933544,8.72571774 6.71604814,7.54730859 8.01683209,6.84786644 L8.01683209,6.84786644 Z" id="Shape"></path>
                                            <path d="M10.7770977,6.74374318 C8.45821586,6.74374318 6.5778481,8.22819199 6.5778481,10.0594666 L6.5778481,12.6170144 C6.5778481,13.1292505 7.10336354,13.544125 7.75172852,13.544125 L13.802558,13.544125 C14.4508774,13.544125 14.9764384,13.1292505 14.9764384,12.6170144 L14.9764384,10.0594666 C14.9763473,8.22822796 13.095934,6.74374318 10.7770977,6.74374318 L10.7770977,6.74374318 Z" id="Shape"></path>
                                        </g>
                                    </g>
                                </g>
                            </g>
                        </g>
                    </g>
                </g>
            </g>
        </g>
    </g>
</svg>