<?xml version="1.0" encoding="UTF-8"?>
<svg width="109px" height="33px" viewBox="0 0 109 33" version="1.1" xmlns="http://www.w3.org/2000/svg" xmlns:xlink="http://www.w3.org/1999/xlink">
    <!-- Generator: sketchtool 40.1 (33804) - http://www.bohemiancoding.com/sketch -->
    <title>6433CE51-D1D6-43FE-8F25-1802B0B82061</title>
    <desc>Created with sketchtool.</desc>
    <defs>
        <linearGradient x1="50%" y1="100%" x2="50%" y2="0%" id="linearGradient-1">
            <stop stop-color="#F2F4F7" offset="0%"></stop>
            <stop stop-color="#FFFFFF" offset="100%"></stop>
        </linearGradient>
        <rect id="path-2" x="0" y="0" width="109" height="32" rx="4"></rect>
        <mask id="mask-3" maskContentUnits="userSpaceOnUse" maskUnits="objectBoundingBox" x="0" y="0" width="109" height="32" fill="white">
            <use xlink:href="#path-2"></use>
        </mask>
    </defs>
    <g id="Final" stroke="none" stroke-width="1" fill="none" fill-rule="evenodd">
        <g id="Messages" transform="translate(-1201.000000, -247.000000)">
            <g id="Group" transform="translate(105.000000, 187.033833)">
                <g id="Secondary-Bar" transform="translate(0.000000, 41.000000)">
                    <g id="Group-3" transform="translate(1096.000000, 19.000000)">
                        <g id="Actions">
                            <g id="Base">
                                <use stroke="#CED0DA" mask="url(#mask-3)" stroke-width="2" fill="url(#linearGradient-1)" xlink:href="#path-2"></use>
                                <rect id="Divider" fill="#CED0DA" x="54" y="1" width="1" height="30"></rect>
                            </g>
                            <path d="M77.9999,19.0001 C77.4479,19.0001 76.9999,18.5521 76.9999,18.0001 L76.9999,15.0001 C76.9999,14.4481 77.4479,14.0001 77.9999,14.0001 C78.5519,14.0001 78.9999,14.4481 78.9999,15.0001 L78.9999,18.0001 C78.9999,18.5521 78.5519,19.0001 77.9999,19.0001 L77.9999,19.0001 Z M81.9999,19.0001 C81.4479,19.0001 80.9999,18.5521 80.9999,18.0001 L80.9999,15.0001 C80.9999,14.4481 81.4479,14.0001 81.9999,14.0001 C82.5519,14.0001 82.9999,14.4481 82.9999,15.0001 L82.9999,18.0001 C82.9999,18.5521 82.5519,19.0001 81.9999,19.0001 L81.9999,19.0001 Z M82.9999,12.0001 L76.9999,12.0001 L74.9999,12.0001 L75.9999,20.0001 C75.9999,20.5521 76.4479,21.0001 76.9999,21.0001 L82.9999,21.0001 C83.5519,21.0001 83.9999,20.5521 83.9999,20.0001 L84.9999,12.0001 L82.9999,12.0001 Z M79.9999,9.0001 C79.4479,9.0001 78.9999,9.4481 78.9999,10.0001 L80.9999,10.0001 C80.9999,9.4481 80.5519,9.0001 79.9999,9.0001 L79.9999,9.0001 Z M86.9999,12.0001 L85.9999,21.0001 C85.9999,22.1051 85.1049,23.0001 83.9999,23.0001 L75.9999,23.0001 C74.8949,23.0001 73.9999,22.1051 73.9999,21.0001 L72.9999,12.0001 C72.4479,12.0001 71.9999,11.5521 71.9999,11.0001 C71.9999,10.4481 72.4479,10.0001 72.9999,10.0001 L76.9999,10.0001 L76.9999,8.0001 C76.9999,7.4481 77.4479,7.0001 77.9999,7.0001 L81.9999,7.0001 C82.5519,7.0001 82.9999,7.4481 82.9999,8.0001 L82.9999,10.0001 L86.9999,10.0001 C87.5519,10.0001 87.9999,10.4481 87.9999,11.0001 C87.9999,11.5521 87.5519,12.0001 86.9999,12.0001 L86.9999,12.0001 Z" id="Icon" fill="#7F8FA4"></path>
                        </g>
                        <g id="Group-2" transform="translate(17.000000, 4.966167)">
                            <path d="M22.6401979,2.29948942 L21.6401979,2.29948942 L21.6401979,1.29948942 C21.6401979,0.747489419 21.1921979,0.299489419 20.6401979,0.299489419 C20.0881979,0.299489419 19.6401979,0.747489419 19.6401979,1.29948942 L19.6401979,2.29948942 L18.6401979,2.29948942 C18.0881979,2.29948942 17.6401979,2.74748942 17.6401979,3.29948942 C17.6401979,3.85148942 18.0881979,4.29948942 18.6401979,4.29948942 L19.6401979,4.29948942 L19.6401979,5.29948942 C19.6401979,5.85148942 20.0881979,6.29948942 20.6401979,6.29948942 C21.1921979,6.29948942 21.6401979,5.85148942 21.6401979,5.29948942 L21.6401979,4.29948942 L22.6401979,4.29948942 C23.1921979,4.29948942 23.6401979,3.85148942 23.6401979,3.29948942 C23.6401979,2.74748942 23.1921979,2.29948942 22.6401979,2.29948942" id="Path" fill="#7F8FA4"></path>
                            <g id="email-39.1" transform="translate(0.429722, 6.095458)" stroke-width="1.5552" stroke="#7F8FA4">
                                <g id="icons">
                                    <g id="XMLID_2504_">
                                        <g id="XMLID_21366_">
                                            <g id="XMLID_21370_">
                                                <path d="M15.552,12.4416 L1.5552,12.4416 C0.69984,12.4416 0,11.74176 0,10.8864 L0,1.5552 C0,0.69984 0.69984,0 1.5552,0 L15.552,0 C16.40736,0 17.1072,0.69984 17.1072,1.5552 L17.1072,10.8864 C17.1072,11.74176 16.40736,12.4416 15.552,12.4416 L15.552,12.4416 Z" id="XMLID_21374_"></path>
                                                <polyline id="XMLID_21373_" points="0.7776 0.7776 8.5536 6.9984 16.3296 0.7776"></polyline>
                                                <path d="M0.7776,11.664 L6.2208,5.4432" id="XMLID_21372_"></path>
                                                <path d="M16.3296,11.664 L10.8864,5.4432" id="XMLID_21371_"></path>
                                            </g>
                                        </g>
                                    </g>
                                </g>
                            </g>
                        </g>
                    </g>
                </g>
            </g>
        </g>
    </g>
</svg>