<?xml version="1.0" encoding="UTF-8"?>
<svg width="25px" height="20px" viewBox="0 0 25 20" version="1.1" xmlns="http://www.w3.org/2000/svg" xmlns:xlink="http://www.w3.org/1999/xlink">
    <!-- Generator: Sketch 40.2 (33826) - http://www.bohemiancoding.com/sketch -->
    <title>Group 2</title>
    <desc>Created with Sketch.</desc>
    <defs></defs>
    <g id="Final" stroke="none" stroke-width="1" fill="none" fill-rule="evenodd">
        <g id="Messages" transform="translate(-1217.000000, -252.000000)">
            <g id="Group" transform="translate(105.000000, 187.033833)">
                <g id="Secondary-Bar" transform="translate(0.000000, 41.000000)">
                    <g id="Group-3" transform="translate(1096.000000, 19.000000)">
                        <g id="Group-2" transform="translate(17.000000, 4.966167)">
                            <path d="M22.6401979,2.29948942 L21.6401979,2.29948942 L21.6401979,1.29948942 C21.6401979,0.747489419 21.1921979,0.299489419 20.6401979,0.299489419 C20.0881979,0.299489419 19.6401979,0.747489419 19.6401979,1.29948942 L19.6401979,2.29948942 L18.6401979,2.29948942 C18.0881979,2.29948942 17.6401979,2.74748942 17.6401979,3.29948942 C17.6401979,3.85148942 18.0881979,4.29948942 18.6401979,4.29948942 L19.6401979,4.29948942 L19.6401979,5.29948942 C19.6401979,5.85148942 20.0881979,6.29948942 20.6401979,6.29948942 C21.1921979,6.29948942 21.6401979,5.85148942 21.6401979,5.29948942 L21.6401979,4.29948942 L22.6401979,4.29948942 C23.1921979,4.29948942 23.6401979,3.85148942 23.6401979,3.29948942 C23.6401979,2.74748942 23.1921979,2.29948942 22.6401979,2.29948942" id="Path" fill="#7F8FA4"></path>
                            <g id="email-39.1" transform="translate(0.429722, 6.095458)" stroke-width="1.5552" stroke="#7F8FA4">
                                <g id="icons">
                                    <g id="XMLID_2504_">
                                        <g id="XMLID_21366_">
                                            <g id="XMLID_21370_">
                                                <path d="M15.552,12.4416 L1.5552,12.4416 C0.69984,12.4416 0,11.74176 0,10.8864 L0,1.5552 C0,0.69984 0.69984,0 1.5552,0 L15.552,0 C16.40736,0 17.1072,0.69984 17.1072,1.5552 L17.1072,10.8864 C17.1072,11.74176 16.40736,12.4416 15.552,12.4416 L15.552,12.4416 Z" id="XMLID_21374_"></path>
                                                <polyline id="XMLID_21373_" points="0.7776 0.7776 8.5536 6.9984 16.3296 0.7776"></polyline>
                                                <path d="M0.7776,11.664 L6.2208,5.4432" id="XMLID_21372_"></path>
                                                <path d="M16.3296,11.664 L10.8864,5.4432" id="XMLID_21371_"></path>
                                            </g>
                                        </g>
                                    </g>
                                </g>
                            </g>
                        </g>
                    </g>
                </g>
            </g>
        </g>
    </g>
</svg>