<?xml version="1.0" encoding="UTF-8"?>
<svg width="85px" height="48px" viewBox="0 0 85 48" version="1.1" xmlns="http://www.w3.org/2000/svg" xmlns:xlink="http://www.w3.org/1999/xlink">
    <!-- Generator: sketchtool 41 (35326) - http://www.bohemiancoding.com/sketch -->
    <title>6FE1887B-1FD0-4D5B-9F46-28E459B28643</title>
    <desc>Created with sketchtool.</desc>
    <defs></defs>
    <g id="Final" stroke="none" stroke-width="1" fill="none" fill-rule="evenodd">
        <g id="Main_Not-Signed-In_2" transform="translate(-285.000000, -523.000000)" stroke-width="1.8" stroke="#535353">
            <g id="Group-16" transform="translate(122.000000, 524.000000)">
                <g id="Group-6" transform="translate(164.000000, 0.000000)">
                    <g id="businesswoman.5">
                        <g id="Businesswoman">
                            <g id="filled">
                                <g id="Businesswomen">
                                    <path d="M6.31521739,12.6538462 C6.31521739,17.7756411 3.60869565,28.0192308 3.60869565,28.0192308 C3.60869565,28.0192308 9.92391304,29.8269231 18.0434783,29.8269231 C26.1630435,29.8269231 32.4782609,28.0192308 32.4782609,28.0192308 C32.4782609,28.0192308 29.7717391,17.7756411 29.7717391,12.6538462 L29.7717391,11.9191267 C29.7717391,5.33637478 24.4490913,0 17.8716831,0 L18.2152735,0 C11.643054,0 6.31521739,5.32995261 6.31521739,11.9191267 C6.31521739,11.9191267 6.31521739,11.4485602 6.31521739,12.6538462 Z" id="Rectangle-2323" fill="#D8D8D8"></path>
                                    <path d="M13.9316472,29.8269231 L11.2771739,35.2910839 L5.85991499,35.2910839 C2.61687541,35.2910839 0,37.912214 0,41.145542 L0,47 M36.9891304,47 L36.9891304,41.145542 C36.9891304,37.9187932 34.3655571,35.2910839 31.1292154,35.2910839 L24.9312291,35.2910839 L22.2767559,29.8269231" id="Rectangle-2326"></path>
                                    <polygon id="Triangle-105" fill="#D8D8D8" transform="translate(13.081522, 38.865385) rotate(-45.000000) translate(-13.081522, -38.865385) " points="13.719455 34.7980769 15.5238029 42.9326923 10.6392406 42.9326923"></polygon>
                                    <polygon id="Triangle-104" fill="#D8D8D8" transform="translate(23.005435, 38.865385) rotate(225.000000) translate(-23.005435, -38.865385) " points="23.6433681 34.7980769 25.4477159 42.9326923 20.5631536 42.9326923"></polygon>
                                </g>
                            </g>
                        </g>
                    </g>
                    <g id="businessmen.5" transform="translate(42.402174, 0.000000)">
                        <g id="Businessmen">
                            <g id="filled">
                                <g id="Businessmen">
                                    <path d="M7.2173913,11.78223 L7.2173913,5.92520141 C7.2173913,2.65280303 9.87300256,0 13.1239958,0 L32.4782609,0 L32.4782609,11.7819362 L32.4782609,11.7819362 C34.0084805,12.0005839 35.1847826,13.3159147 35.1847826,14.9215207 L35.1847826,15.8092485 C35.1847826,17.4171096 33.9905614,18.7455179 32.4484432,18.9526909 C31.9992504,25.5327394 26.5308184,30.7307692 19.8478261,30.7307692 C13.1666551,30.7307692 7.69710236,25.5271874 7.24728786,18.9529591 C5.70251979,18.7472796 4.51086957,17.4252954 4.51086957,15.8092485 L4.51086957,14.9215207 C4.51086957,13.3240378 5.68972403,12.0024117 7.2173913,11.78223 Z" id="Rectangle-2323" fill="#D8D8D8"></path>
                                    <path d="M14.8338211,29.8269231 L12.1793478,35.2910839 L5.85991499,35.2910839 C2.61687541,35.2910839 0,37.912214 0,41.145542 L0,47 M40.5978261,47 L40.5978261,41.145542 C40.5978261,37.9187932 37.9742527,35.2910839 34.7379111,35.2910839 L27.6377509,35.2910839 L24.9832776,29.8269231" id="Rectangle-2326"></path>
                                    <polygon id="Triangle-102" fill="#D8D8D8" transform="translate(14.885870, 37.961538) rotate(-45.000000) translate(-14.885870, -37.961538) " points="15.5238029 33.8942308 17.3281507 42.0288462 12.4435884 42.0288462"></polygon>
                                    <polygon id="Triangle-103" fill="#D8D8D8" transform="translate(24.809783, 37.961538) rotate(225.000000) translate(-24.809783, -37.961538) " points="25.4477159 33.8942308 27.2520637 42.0288462 22.3675015 42.0288462"></polygon>
                                </g>
                            </g>
                        </g>
                    </g>
                </g>
            </g>
        </g>
    </g>
</svg>