<?xml version="1.0" encoding="UTF-8"?>
<svg width="13px" height="17px" viewBox="0 0 13 17" version="1.1" xmlns="http://www.w3.org/2000/svg" xmlns:xlink="http://www.w3.org/1999/xlink">
    <!-- Generator: sketchtool 40.1 (33804) - http://www.bohemiancoding.com/sketch -->
    <title>96C28434-8B5E-4569-ACCB-E2358B2FB819</title>
    <desc>Created with sketchtool.</desc>
    <defs></defs>
    <g id="Final" stroke="none" stroke-width="1" fill="none" fill-rule="evenodd">
        <g id="Story-Page-MAP-option-2" transform="translate(-1127.000000, -3012.000000)" fill="#FFFFFF">
            <g id="Group-26" transform="translate(0.000000, 133.000000)">
                <g id="Group-3" transform="translate(996.000000, 2713.477883)">
                    <g id="Share" transform="translate(25.159137, 111.906992)">
                        <g id="g" transform="translate(95.000000, 47.322876)">
                            <path d="M17.5521356,7 C13.1963777,7 11,10.1229831 11,12.7271864 C11,14.3040194 11.5970363,15.7069056 12.8774625,16.229753 C13.0873608,16.3155642 13.2755254,16.2327361 13.3363874,16.0002518 C13.3787312,15.8393608 13.4789927,15.4334334 13.5236998,15.264523 C13.5850654,15.0345569 13.5612785,14.9538983 13.3918644,14.7534915 C13.0226634,14.3179661 12.7866925,13.7541695 12.7866925,12.9556029 C12.7866925,10.6386634 14.5201937,8.5645908 17.3005908,8.5645908 C19.7625375,8.5645908 21.1152155,10.0689395 21.1152155,12.0780048 C21.1152155,14.7214528 19.9453172,16.9525424 18.2086392,16.9525424 C17.2494528,16.9525424 16.5315448,16.159322 16.7616271,15.1865375 C17.0372688,14.025046 17.5710799,12.771661 17.5710799,11.9332688 C17.5710799,11.1828571 17.1682518,10.5569201 16.3345472,10.5569201 C15.354092,10.5569201 14.5664504,11.5712349 14.5664504,12.9299564 C14.5664504,13.7953123 14.8589056,14.3806489 14.8589056,14.3806489 C14.8589056,14.3806489 13.8555932,18.6319613 13.6796707,19.3764455 C13.3293366,20.8591768 13.6269443,22.6769007 13.6522421,22.8604552 C13.6669637,22.9692785 13.8067797,22.9951186 13.8700048,22.9129104 C13.9604649,22.7948668 15.1282712,21.353201 15.5252494,19.9127748 C15.6375981,19.5049104 16.1702082,17.3927167 16.1702082,17.3927167 C16.4886973,18.0002906 17.4196416,18.5354576 18.4096271,18.5354576 C21.3568426,18.5354576 23.3563777,15.8486199 23.3563777,12.252184 C23.356339,9.53264891 21.0529588,7 17.5521356,7" id="Imported-Layers-Copy-5"></path>
                        </g>
                    </g>
                </g>
            </g>
        </g>
    </g>
</svg>