<?xml version="1.0" encoding="UTF-8"?>
<svg width="56px" height="44px" viewBox="0 0 56 44" version="1.1" xmlns="http://www.w3.org/2000/svg" xmlns:xlink="http://www.w3.org/1999/xlink">
    <!-- Generator: sketchtool 40.1 (33804) - http://www.bohemiancoding.com/sketch -->
    <title>7D6847ED-9364-4B89-B856-9D537C25F385</title>
    <desc>Created with sketchtool.</desc>
    <g id="Final" stroke="none" stroke-width="1" fill="none" fill-rule="evenodd">
        <g id="Story-Page" transform="translate(-1084.000000, -2211.000000)" fill="#D9D9D9">
            <g id="Quote" transform="translate(997.000000, 2144.424407)">
                <path d="M110.873923,93.6083984 C110.873923,96.6647671 109.889108,99.1607641 107.919448,101.096464 C105.949788,103.032164 103.572648,104 100.787957,104 C98.0032652,104 95.6431048,103.032164 93.7074046,101.096464 C91.7717045,99.1607641 90.8038689,96.5968488 90.8038689,93.4046415 C90.8038689,90.6199501 91.8566023,87.6994638 93.9621008,84.6430951 L103.742432,69.3613281 L112.911492,69.3613281 L106.085636,84.6430951 C109.277843,86.6127549 110.873923,89.6011595 110.873923,93.6083984 L110.873923,93.6083984 L110.873923,93.6083984 Z M137.158562,93.6083984 C137.158562,96.6647671 136.173747,99.1607641 134.204087,101.096464 C132.234427,103.032164 129.857287,104 127.072596,104 C124.287904,104 121.927744,103.032164 119.992044,101.096464 C118.056344,99.1607641 117.088508,96.5968488 117.088508,93.4046415 C117.088508,90.6199501 118.141242,87.6994638 120.24674,84.6430951 L130.027071,69.3613281 L139.196131,69.3613281 L132.370275,84.6430951 C135.562482,86.6127549 137.158562,89.6011595 137.158562,93.6083984 L137.158562,93.6083984 L137.158562,93.6083984 Z" id="“"></path>
            </g>
        </g>
    </g>
</svg>