<?xml version="1.0" encoding="UTF-8"?>
<svg width="48px" height="53px" viewBox="0 0 48 53" version="1.1" xmlns="http://www.w3.org/2000/svg" xmlns:xlink="http://www.w3.org/1999/xlink">
    <!-- Generator: sketchtool 41 (35326) - http://www.bohemiancoding.com/sketch -->
    <title>F539BF8F-8CA8-4BFD-8F3D-5E80EB303DF4</title>
    <desc>Created with sketchtool.</desc>
    <defs></defs>
    <g id="Final" stroke="none" stroke-width="1" fill="none" fill-rule="evenodd">
        <g id="Main_Not-Signed-In_2" transform="translate(-693.000000, -520.000000)" stroke-width="2" stroke="#535353">
            <g id="Group-5" transform="translate(589.000000, 521.000000)">
                <g id="readinglove.4" transform="translate(105.000000, 0.000000)">
                    <g id="Readinglove">
                        <g id="filled">
                            <g id="Readinglove">
                                <rect id="Rectangle-98" x="0" y="21" width="23" height="30"></rect>
                                <path d="M5,28 L17,28" id="Line"></path>
                                <rect id="Rectangle-98-Copy" fill="#D8D8D8" x="23" y="21" width="23" height="30"></rect>
                                <path d="M29,28 L41,28" id="Line-Copy-48"></path>
                                <path d="M5,35 L17,35" id="Line-Copy-47"></path>
                                <path d="M5,42 L17,42" id="Line-Copy-51"></path>
                                <path d="M29,35 L41,35" id="Line-Copy-49"></path>
                                <path d="M29,42 L41,42" id="Line-Copy-50"></path>
                                <path d="M14,5.33333333 C14,1.25055007 16.3878147,0 19.3333333,0 C20.7536116,0 22.0442236,0.555167386 23,1.46033287 C23.9557764,0.555167386 25.2463884,0 26.6666667,0 C29.6121853,0 32,1.25055007 32,5.33333333 C32,9.4161166 23.6846731,15.9401123 23,15.8730005 C22.2674039,15.9401123 14,9.4161166 14,5.33333333 Z" id="Oval-5-Copy-127" fill="#D8D8D8"></path>
                            </g>
                        </g>
                    </g>
                </g>
            </g>
        </g>
    </g>
</svg>