<?xml version="1.0" encoding="UTF-8"?>
<svg width="18px" height="17px" viewBox="0 0 18 17" version="1.1" xmlns="http://www.w3.org/2000/svg" xmlns:xlink="http://www.w3.org/1999/xlink">
    <!-- Generator: sketchtool 40.1 (33804) - http://www.bohemiancoding.com/sketch -->
    <title>ECCA01D4-E503-4C4F-B438-9AE504B07527</title>
    <desc>Created with sketchtool.</desc>
    <defs></defs>
    <g id="Final" stroke="none" stroke-width="1" fill="none" fill-rule="evenodd">
        <g id="Main-#1" transform="translate(-1143.000000, -77.000000)" fill="#4A4A4A">
            <g id="Header">
                <g id="Group-11">
                    <g id="Group-10">
                        <g id="Cart" transform="translate(1143.000000, 74.000000)">
                            <path d="M14,16.02 C15.105,16.02 16,16.912 16,18.013 C16,19.112 15.105,20.004 14,20.004 C12.895,20.004 12,19.112 12,18.013 C12,16.912 12.895,16.02 14,16.02 M6,16.02 C7.104,16.02 8,16.912 8,18.013 C8,19.112 7.104,20.004 6,20.004 C4.895,20.004 4,19.112 4,18.013 C4,16.912 4.895,16.02 6,16.02 M18,7.058 L17,10.046 C16.63,10.883 16.105,12.037 15,12.037 L5.36,12.037 L5.478,13.034 L18,13.034 L17,15.025 L4.352,15.025 L3.709,15.1 L2.522,5.067 L1,5.067 C0.447,5.067 0,4.621 0,4.071 C0,3.521 0.352,3.014 0.904,3.014 L4.291,3 L4.545,5.15 C4.67,5.101 4.812,5.067 5,5.067 L17,5.067 C18.105,5.067 18,5.959 18,7.058" id="Shopping-Cart-Icon"></path>
                        </g>
                    </g>
                </g>
            </g>
        </g>
    </g>
</svg>