<?xml version="1.0" encoding="UTF-8"?>
<svg width="11px" height="12px" viewBox="0 0 11 12" version="1.1" xmlns="http://www.w3.org/2000/svg" xmlns:xlink="http://www.w3.org/1999/xlink">
    <!-- Generator: sketchtool 40.1 (33804) - http://www.bohemiancoding.com/sketch -->
    <title>6F4D7A94-451C-4DE6-A656-69AA969BCCC1</title>
    <desc>Created with sketchtool.</desc>
    <defs></defs>
    <g id="Symbols" stroke="none" stroke-width="1" fill="none" fill-rule="evenodd">
        <g id="Footer" transform="translate(-1288.000000, -157.000000)" fill="#FFFFFF">
            <g id="4">
                <g transform="translate(1126.000000, 50.000000)">
                    <g id="Group-3">
                        <g id="Input" transform="translate(0.389105, 98.262146)">
                            <path d="M161.914818,13.6516368 L164.536936,14.570659 C164.73063,14.6387924 164.946724,14.6167035 165.120654,14.511859 L170.943665,10.9994146 L166.140842,15.329459 C166.011383,15.4461257 165.937595,15.6079035 165.936936,15.7768368 L165.920465,19.5282146 C165.919148,19.8651479 166.406348,19.9637702 166.550959,19.6557702 L167.833359,16.9242146 C167.912089,16.7568368 168.125877,16.6893257 168.295195,16.7786146 L171.696042,18.569059 C171.909501,18.6816813 172.174018,18.5426146 172.185218,18.3120813 L172.626301,9.4258146 C172.637501,9.1990146 172.395712,9.03754793 172.17303,9.1234146 L161.905265,13.0720368 C161.626912,13.179059 161.633171,13.5530146 161.914818,13.6516368" id="Icon"></path>
                        </g>
                    </g>
                </g>
            </g>
        </g>
    </g>
</svg>