<?xml version="1.0" encoding="UTF-8"?>
<svg width="14px" height="10px" viewBox="0 0 14 10" version="1.1" xmlns="http://www.w3.org/2000/svg" xmlns:xlink="http://www.w3.org/1999/xlink">
    <!-- Generator: sketchtool 40.1 (33804) - http://www.bohemiancoding.com/sketch -->
    <title>8D6D2FA0-2973-47DF-B2FB-846A45278D98</title>
    <desc>Created with sketchtool.</desc>
    <defs></defs>
    <g id="Final" stroke="none" stroke-width="1" fill="none" fill-rule="evenodd">
        <g id="Story-Page-MAP-option-2" transform="translate(-567.000000, -4558.000000)" fill="#FFFFFF">
            <g id="Group-26" transform="translate(0.000000, 133.000000)">
                <g id="Tags-and-Share" transform="translate(241.000000, 4359.000000)">
                    <g id="Tweet-Button" transform="translate(305.000000, 56.000000)">
                        <path d="M31.9,11.5 C31.9,11.5 31.9,11.4 31.9,11.5 C31.4,11 30.8,10.8 30.2,10.9 L30.2,10.9 L30.2,10.9 C30.8,10.8 31.1,10.6 31.2,10.5 C31.2,10.4 31.2,10.3 31.1,10.3 C30.8,10.3 30.5,10.4 30.3,10.5 C30.6,10.3 30.7,10.2 30.7,10.1 C30.4,10.1 30.1,10.3 29.7,10.6 C29.8,10.4 29.9,10.3 29.8,10.2 C29.6,10.3 29.5,10.4 29.4,10.6 C29.1,10.9 28.9,11.1 28.8,11.4 L28.8,11.4 C28.4,12.1 28.1,12.7 27.9,13.4 L27.8,13.4 C27.6,13.1 27.3,12.8 26.9,12.6 C26.5,12.3 26,12.1 25.4,11.8 C24.8,11.5 24.2,11.2 23.5,11 C23.5,11.7 23.8,12.3 24.5,12.7 L24.5,12.7 C24.3,12.7 24,12.7 23.8,12.8 C23.8,13.4 24.3,13.9 25.2,14.1 L25.2,14.1 C24.9,14.1 24.6,14.2 24.3,14.4 C24.6,15 25.1,15.2 25.9,15.2 C25.8,15.3 25.6,15.4 25.6,15.4 C25.5,15.5 25.4,15.7 25.5,15.9 C25.7,16.2 25.9,16.3 26.4,16.3 L26.4,16.3 L26.4,16.3 C25.7,17 24.8,17.4 23.8,17.3 L23.8,17.3 C23.2,17.3 22.5,17 21.8,16.4 C22.5,17.4 23.5,18.2 24.7,18.7 C26.1,19.1 27.5,19.2 28.8,18.8 L28.8,18.8 C30.1,18.4 31.3,17.6 32.2,16.5 C32.6,15.9 32.9,15.3 33,14.7 C33.7,14.7 34.2,14.5 34.5,14.1 L34.5,14.1 C34.3,14.2 33.8,14.2 33.1,14 L33.1,14 L33.1,14 C33.8,13.9 34.3,13.7 34.4,13.3 C33.9,13.5 33.4,13.5 32.9,13.3 C32.8,12.6 32.5,12 31.9,11.5 L31.9,11.5 Z" id="Twitter-Icon"></path>
                    </g>
                </g>
            </g>
        </g>
    </g>
</svg>