<?xml version="1.0" encoding="UTF-8"?>
<svg width="60px" height="50px" viewBox="0 0 60 50" version="1.1" xmlns="http://www.w3.org/2000/svg" xmlns:xlink="http://www.w3.org/1999/xlink">
    <!-- Generator: sketchtool 40.1 (33804) - http://www.bohemiancoding.com/sketch -->
    <title>D49EBD12-9185-472D-9E68-89FF4FD59634</title>
    <desc>Created with sketchtool.</desc>
    <defs></defs>
    <g id="Final" stroke="none" stroke-width="1" fill="none" fill-rule="evenodd">
        <g id="Add-Story" transform="translate(-555.000000, -1482.000000)" fill="#A5AEA8">
            <g id="Upload-Area" transform="translate(249.000000, 1451.001480)">
                <path d="M336.253,60.334 C336.266,60.319 336.271,60.299 336.285,60.285 C336.3,60.271 336.319,60.266 336.334,60.252 L336.415,60.172 C336.805,59.781 337.439,59.781 337.829,60.172 C337.991,60.334 338.08,60.537 338.104,60.746 L341.716,64.358 C342.091,64.733 342.091,65.341 341.716,65.716 C341.341,66.091 340.733,66.091 340.358,65.716 L338.001,63.358 L338.001,80.001 C338.001,80.553 337.553,81 337.001,81 C336.448,81 336.001,80.553 336.001,80.001 L336.001,63.415 L333.586,65.829 C333.196,66.219 332.563,66.219 332.172,65.829 C331.782,65.439 331.782,64.805 332.172,64.414 L336.253,60.334 Z M354.353,72.929 C354.243,72.971 354.126,73 354.001,73 L344.001,73 C343.448,73 343.001,72.552 343.001,72 C343.001,71.448 343.448,71 344.001,71 L352,71 L352,71 L353,71 C359.066,71 364,66.065 364,60 C364,59.473 363.951,58.956 363.877,58.445 C363.862,58.337 363.847,58.23 363.828,58.124 C363.741,57.619 363.627,57.122 363.472,56.642 C363.46,56.606 363.445,56.572 363.433,56.537 C363.28,56.076 363.092,55.63 362.88,55.196 C362.845,55.122 362.811,55.047 362.774,54.975 C362.544,54.53 362.286,54.101 361.998,53.692 C361.952,53.627 361.902,53.565 361.855,53.5 C361.575,53.12 361.273,52.755 360.945,52.413 C360.912,52.378 360.882,52.34 360.848,52.306 C360.491,51.942 360.104,51.606 359.697,51.294 C359.635,51.245 359.572,51.199 359.508,51.152 C358.635,50.51 357.662,49.986 356.6,49.617 C355.47,49.224 354.262,49 353,49 C352.448,49 352,48.553 352,48 C352,47.448 352.448,47 353,47 C354.027,47 355.021,47.132 355.98,47.358 C355.983,47.243 356,47.113 356,47 C356,39.281 349.72,33 342,33 C336.434,33 331.365,36.379 329.166,41.467 C329.881,42.143 330.505,42.926 330.978,43.83 C331.234,44.319 331.045,44.924 330.556,45.179 C330.408,45.257 330.249,45.294 330.093,45.294 C329.732,45.294 329.385,45.099 329.206,44.758 C328.746,43.879 328.117,43.128 327.373,42.532 C327.365,42.526 327.355,42.526 327.347,42.52 C327.054,42.288 326.746,42.086 326.428,41.906 C326.36,41.868 326.29,41.835 326.221,41.799 C325.978,41.672 325.729,41.562 325.474,41.465 C325.363,41.423 325.252,41.382 325.139,41.346 C324.904,41.27 324.664,41.211 324.422,41.161 C324.308,41.137 324.196,41.108 324.08,41.09 C323.726,41.035 323.366,41 323,41 C319.358,41 316.36,43.797 316.033,47.355 C316.988,47.131 317.978,47 319,47 C319.553,47 320,47.448 320,48 C320,48.553 319.553,49 319,49 C317.718,49 316.491,49.232 315.346,49.637 C314.283,50.013 313.308,50.544 312.435,51.196 C312.389,51.23 312.343,51.263 312.298,51.298 C311.879,51.62 311.484,51.968 311.118,52.344 C311.099,52.364 311.081,52.386 311.061,52.407 C310.71,52.774 310.386,53.166 310.09,53.577 C310.063,53.614 310.034,53.649 310.007,53.686 C309.71,54.109 309.444,54.554 309.208,55.015 C309.179,55.071 309.154,55.128 309.126,55.185 C308.901,55.643 308.702,56.116 308.543,56.605 C308.539,56.617 308.534,56.628 308.53,56.64 C308.373,57.126 308.259,57.628 308.171,58.137 C308.153,58.24 308.138,58.344 308.123,58.448 C308.05,58.958 308,59.475 308,60 C308,66.065 312.935,71 319,71 L320,71 L320.001,71 L330.001,71 C330.553,71 331.001,71.448 331.001,72 C331.001,72.552 330.553,73 330.001,73 L320.001,73 L320,73 L319,73 C311.832,73 306,67.169 306,60 C306,59.406 306.055,58.825 306.132,58.252 C306.15,58.12 306.17,57.991 306.192,57.86 C306.386,56.697 306.732,55.588 307.214,54.55 C307.254,54.465 307.295,54.38 307.337,54.296 C307.852,53.247 308.501,52.279 309.267,51.412 C309.332,51.338 309.398,51.266 309.465,51.194 C310.264,50.33 311.176,49.576 312.181,48.954 C312.244,48.915 312.306,48.877 312.37,48.838 C312.893,48.526 313.433,48.241 314.001,48.003 L314.001,48 C314.001,43.038 318.038,39 323,39 C323.414,39 323.823,39.03 324.226,39.084 C324.331,39.099 324.432,39.129 324.536,39.146 C324.829,39.197 325.12,39.249 325.405,39.328 C325.576,39.375 325.739,39.443 325.906,39.5 C326.109,39.569 326.315,39.631 326.513,39.715 C326.782,39.829 327.039,39.968 327.295,40.107 C327.37,40.148 327.45,40.178 327.523,40.221 C330.135,34.658 335.802,31 342,31 C350.823,31 358,38.178 358,47 C358,47.324 357.989,47.652 357.967,47.991 C358.53,48.225 359.068,48.505 359.588,48.812 C359.666,48.859 359.743,48.906 359.82,48.954 C360.806,49.564 361.702,50.3 362.489,51.143 C362.579,51.238 362.666,51.334 362.753,51.432 C363.125,51.856 363.479,52.295 363.794,52.765 C363.799,52.772 363.803,52.779 363.808,52.787 C364.118,53.25 364.389,53.741 364.639,54.244 C364.693,54.352 364.745,54.46 364.796,54.569 C365.271,55.597 365.614,56.695 365.807,57.846 C365.829,57.981 365.85,58.115 365.869,58.252 C365.946,58.825 366,59.406 366,60 C366,66.712 360.888,72.25 354.353,72.929 L354.353,72.929 Z" id="Upload-Icon"></path>
            </g>
        </g>
    </g>
</svg>