<?xml version="1.0" encoding="UTF-8"?>
<svg width="22px" height="11px" viewBox="0 0 22 11" version="1.1" xmlns="http://www.w3.org/2000/svg" xmlns:xlink="http://www.w3.org/1999/xlink">
    <!-- Generator: sketchtool 41.1 (35376) - http://www.bohemiancoding.com/sketch -->
    <title>E6022304-39C4-4467-9D6A-46D2C7B92DDF</title>
    <desc>Created with sketchtool.</desc>
    <defs></defs>
    <g id="Final" stroke="none" stroke-width="1" fill="none" fill-rule="evenodd">
        <g id="Stories-Category-Main-|-left-side-menu" transform="translate(-241.000000, -1034.000000)" fill="#9FA9BA">
            <g id="Group-2" transform="translate(223.441477, 419.798394)">
                <g id="Group-6" transform="translate(0.000000, 34.000000)">
                    <g id="Group-9" transform="translate(0.000000, 570.000000)">
                        <g id="Layer_1" transform="translate(18.090574, 10.771867)">
                            <g id="water-lavel">
                                <g id="Group">
                                    <path d="M17.0895105,8.4566556 C16.6503254,8.89584078 15.8843994,8.89584078 15.4435846,8.4566556 C14.354992,7.36806301 12.5827698,7.36806301 11.4917328,8.4566556 C11.050918,8.89747041 10.2866217,8.89747041 9.84580684,8.4566556 C8.75639943,7.36969263 6.98417721,7.36643338 5.89314017,8.45828523 C5.45965869,8.89258152 4.68721425,8.89584078 4.24802906,8.4566556 C3.15780684,7.36806301 1.38639943,7.36806301 0.296177211,8.4566556 C-0.0224153817,8.77524819 -0.0224153817,9.29021115 0.296177211,9.60880375 C0.614769803,9.92739634 1.12973277,9.92739634 1.44832536,9.60880375 C1.90217721,9.15495189 2.64202906,9.15495189 3.0950661,9.60880375 C3.61573277,10.1294704 4.33439943,10.4285074 5.07017721,10.4285074 C5.8173624,10.4285074 6.51810314,10.1376186 7.04528832,9.60880375 C7.49914017,9.15495189 8.23899203,9.15495189 8.69202906,9.60880375 C9.21921425,10.1351741 9.9207698,10.4285074 10.6671402,10.4285074 C11.4135105,10.4285074 12.1142513,10.1376186 12.6414365,9.60880375 C13.0952883,9.15495189 13.8335105,9.15332226 14.2881772,9.60880375 C15.3433624,10.6639889 17.1832142,10.6639889 18.2383994,9.60880375 C18.6922513,9.15495189 19.4304735,9.15332226 19.8851402,9.60880375 C20.2037328,9.92739634 20.7186957,9.92739634 21.0372883,9.60880375 C21.3558809,9.29021115 21.3558809,8.77524819 21.0372883,8.4566556 C19.9527698,7.36806301 18.1797328,7.36806301 17.0895105,8.4566556 L17.0895105,8.4566556 Z" id="Shape"></path>
                                    <path d="M17.0895105,4.72724819 C16.6503254,5.16643338 15.8843994,5.16643338 15.4435846,4.72724819 C14.354992,3.6386556 12.5827698,3.6386556 11.4917328,4.72724819 C11.050918,5.16806301 10.2866217,5.16806301 9.84580684,4.72724819 C8.75639943,3.6386556 6.98417721,3.63702597 5.89314017,4.72724819 C5.45965869,5.16317412 4.68721425,5.16480375 4.24802906,4.72724819 C3.15780684,3.6386556 1.38639943,3.6386556 0.296177211,4.72724819 C-0.0224153817,5.04584078 -0.0224153817,5.56080375 0.296177211,5.87939634 C0.614769803,6.19798893 1.12973277,6.19798893 1.44832536,5.87939634 C1.90217721,5.42554449 2.64202906,5.42554449 3.0950661,5.87939634 C3.61573277,6.40006301 4.33439943,6.69747041 5.07017721,6.69747041 C5.8173624,6.69747041 6.51810314,6.40821115 7.04528832,5.87939634 C7.49914017,5.42554449 8.23899203,5.42554449 8.69202906,5.87939634 C9.21921425,6.40576671 9.9207698,6.69747041 10.6671402,6.69747041 C11.4135105,6.69747041 12.1142513,6.40821115 12.6414365,5.87939634 C13.0952883,5.42554449 13.8335105,5.42391486 14.2881772,5.87939634 C15.3767698,6.96798893 17.1498068,6.96798893 18.2383994,5.87939634 C18.6922513,5.42554449 19.4304735,5.42391486 19.8851402,5.87939634 C20.2037328,6.19798893 20.7186957,6.19798893 21.0372883,5.87939634 C21.3558809,5.56080375 21.3558809,5.04584078 21.0372883,4.72724819 C19.9527698,3.6386556 18.1797328,3.6386556 17.0895105,4.72724819 L17.0895105,4.72724819 Z" id="Shape"></path>
                                    <path d="M1.45239943,2.27547041 C1.90625128,1.82161856 2.64610314,1.82161856 3.09914017,2.27547041 C3.61980684,2.79613708 4.33847351,3.09517412 5.07425128,3.09517412 C5.82143647,3.09517412 6.52217721,2.80428523 7.0493624,2.27547041 C7.50321425,1.82161856 8.2430661,1.82161856 8.69610314,2.27547041 C9.22328832,2.80184078 9.92484388,3.09517412 10.6712142,3.09517412 C11.4183994,3.09517412 12.1183254,2.80428523 12.6463254,2.27547041 C13.0993624,1.82161856 13.8383994,1.82161856 14.2930661,2.27547041 C15.3490661,3.3306556 17.188918,3.3306556 18.2441031,2.27547041 C18.6971402,1.82161856 19.4361772,1.82161856 19.8908439,2.27547041 C20.2102513,2.59406301 20.7235846,2.59406301 21.042992,2.27547041 C21.3623994,1.95687782 21.3623994,1.44191486 21.042992,1.12332226 C19.9543994,0.034729672 18.1821772,0.034729672 17.091955,1.12332226 C16.6527698,1.56250745 15.8860291,1.56250745 15.4452142,1.12332226 C14.3566217,0.034729672 12.5843994,0.034729672 11.4941772,1.12332226 C11.0533624,1.56413708 10.2890661,1.56413708 9.84825128,1.12332226 C8.75884388,0.0363593016 6.98662166,0.0331000424 5.89558462,1.12495189 C5.46210314,1.55924819 4.68965869,1.56250745 4.25047351,1.12332226 C3.16025128,0.034729672 1.38884388,0.034729672 0.298621655,1.12332226 C-0.0199709373,1.44191486 -0.0199709373,1.95687782 0.298621655,2.27547041 C0.617214248,2.59406301 1.13380684,2.59324819 1.45239943,2.27547041 L1.45239943,2.27547041 Z" id="Shape"></path>
                                </g>
                            </g>
                        </g>
                    </g>
                </g>
            </g>
        </g>
    </g>
</svg>