<?xml version="1.0" encoding="UTF-8"?>
<svg width="18px" height="20px" viewBox="0 0 18 20" version="1.1" xmlns="http://www.w3.org/2000/svg" xmlns:xlink="http://www.w3.org/1999/xlink">
    <!-- Generator: sketchtool 41.1 (35376) - http://www.bohemiancoding.com/sketch -->
    <title>5ACDACAA-E4D7-435C-8158-0B54EC5FC4D8</title>
    <desc>Created with sketchtool.</desc>
    <defs>
        <path d="M13.2734118,3.39285714 L16.9683529,4.39464286 L16.3485882,6.73535714 L8.64705882,4.64714286 L13.2734118,3.39285714 L13.2734118,3.39285714 Z M8.64705882,2.13857143 L0.945529412,0.0503571429 L0.325764706,2.39107143 L4.02070588,3.39285714 L8.64705882,2.13857143 L8.64705882,2.13857143 Z" id="path-1"></path>
        <polyline id="path-3" points="0.325764706 4.39464286 16.3485882 0.0503571429 16.9683529 2.39107143 0.945529412 6.73535714 0.325764706 4.39464286"></polyline>
        <path d="M1.76470588,5.02678571 C2.73917647,5.02678571 3.52941176,4.22714286 3.52941176,3.24107143 C3.52941176,2.255 1.76470588,0.354285714 1.76470588,0.354285714 C1.76470588,0.354285714 0,2.255 0,3.24107143 C0,4.22714286 0.790235294,5.02678571 1.76470588,5.02678571 L1.76470588,5.02678571 Z" id="path-5"></path>
    </defs>
    <g id="Final" stroke="none" stroke-width="1" fill="none" fill-rule="evenodd">
        <g id="Stories-Category-Main-|-left-side-menu" transform="translate(-244.000000, -904.000000)">
            <g id="campfire.4" transform="translate(244.000000, 904.000000)">
                <g id="Campfire">
                    <g id="filled">
                        <g id="Imported-Layers">
                            <g id="Group-742" transform="translate(0.352941, 12.857143)">
                                <g id="Fill-740-Clipped">
                                    <mask id="mask-2" fill="white">
                                        <use xlink:href="#path-1"></use>
                                    </mask>
                                    <g id="path-1"></g>
                                    <polygon id="Fill-740" fill="#9FA9BA" mask="url(#mask-2)" points="0.325764706 0.0503571429 16.9687059 0.0503571429 16.9687059 6.73535714 0.325764706 6.73535714"></polygon>
                                </g>
                            </g>
                            <path d="M16.7015294,19.95 C16.6708235,19.95 16.6404706,19.9460714 16.6104706,19.9378571 L8.90858824,17.8496429 C8.75435294,17.8075 8.64705882,17.6660714 8.64705882,17.5046429 C8.64705882,17.3428571 8.75435294,17.2014286 8.90858824,17.1596429 L13.5352941,15.9053571 C13.5952941,15.8889286 13.6577647,15.8889286 13.7177647,15.9053571 L17.4127059,16.9071429 C17.6011765,16.9582143 17.7127059,17.1539286 17.6622353,17.3442857 L17.0424706,19.6853571 C17.0184706,19.7767857 16.9591765,19.8546429 16.878,19.9021429 C16.824,19.9335714 16.7629412,19.95 16.7015294,19.95 L16.7015294,19.95 Z M10.3637647,17.5046429 L16.452,19.1553571 L16.8892941,17.5046429 L13.6263529,16.62 L10.3637647,17.5046429 L10.3637647,17.5046429 Z M4.37364706,16.6071429 C4.34294118,16.6071429 4.31223529,16.6032143 4.28223529,16.595 L0.587294118,15.5932143 C0.398823529,15.5421429 0.287294118,15.3464286 0.337764706,15.1560714 L0.957529412,12.815 C0.981529412,12.7235714 1.04082353,12.6457143 1.122,12.5982143 C1.20282353,12.5510714 1.29952941,12.5378571 1.38988235,12.5625 L9.09141176,14.6507143 C9.24564706,14.6925 9.35294118,14.8339286 9.35294118,14.9957143 C9.35294118,15.1571429 9.24564706,15.2985714 9.09141176,15.3407143 L4.46470588,16.595 C4.43470588,16.6032143 4.40435294,16.6071429 4.37364706,16.6071429 L4.37364706,16.6071429 Z M1.11105882,14.9957143 L4.37364706,15.8803571 L7.63623529,14.9957143 L1.548,13.345 L1.11105882,14.9957143 L1.11105882,14.9957143 Z" id="Fill-743" fill="#9FA9BA"></path>
                            <g id="Group-746" transform="translate(0.352941, 12.857143)">
                                <g id="Fill-744-Clipped">
                                    <mask id="mask-4" fill="white">
                                        <use xlink:href="#path-3"></use>
                                    </mask>
                                    <g id="path-3"></g>
                                    <polygon id="Fill-744" fill="#9FA9BA" mask="url(#mask-4)" points="17.5965882 -2.13678571 19.1297647 3.65357143 -0.302470588 8.9225 -1.83564706 3.13214286"></polygon>
                                </g>
                            </g>
                            <path d="M8.47058824,13.2142857 C5.74588235,13.2142857 3.52941176,10.9710714 3.52941176,8.21428571 C3.52941176,5.53928571 8.02235294,0.669642857 8.21329412,0.463571429 C8.34670588,0.32 8.59447059,0.32 8.72788235,0.463571429 C8.91917647,0.669642857 13.4117647,5.53928571 13.4117647,8.21428571 C13.4117647,10.9710714 11.1952941,13.2142857 8.47058824,13.2142857 L8.47058824,13.2142857 Z M8.472,1.23642857 C7.51905882,2.30964286 4.23529412,6.1575 4.23529412,8.21428571 C4.23529412,10.5771429 6.13517647,12.5 8.47058824,12.5 C10.806,12.5 12.7058824,10.5771429 12.7058824,8.21428571 C12.7058824,6.35178571 9.85870588,2.78571429 8.472,1.23642857 L8.472,1.23642857 Z" id="Fill-748" fill="#9FA9BA"></path>
                            <g id="Group-751" transform="translate(6.705882, 6.428571)">
                                <g id="Fill-749-Clipped">
                                    <mask id="mask-6" fill="white">
                                        <use xlink:href="#path-5"></use>
                                    </mask>
                                    <g id="path-5"></g>
                                    <polygon id="Fill-749" fill="#9FA9BA" mask="url(#mask-6)" points="0 0.354285714 3.52941176 0.354285714 3.52941176 5.02678571 0 5.02678571"></polygon>
                                </g>
                            </g>
                            <path d="M8.47058824,11.8125 C7.30270588,11.8125 6.35294118,10.8514286 6.35294118,9.66964286 C6.35294118,8.57357143 8.02270588,6.74321429 8.21329412,6.53821429 C8.34670588,6.39464286 8.59447059,6.39464286 8.72788235,6.53821429 C8.91847059,6.74321429 10.5882353,8.57357143 10.5882353,9.66964286 C10.5882353,10.8514286 9.63847059,11.8125 8.47058824,11.8125 L8.47058824,11.8125 Z M8.47058824,7.31535714 C7.84235294,8.045 7.05882353,9.13214286 7.05882353,9.66964286 C7.05882353,10.4575 7.692,11.0982143 8.47058824,11.0982143 C9.24917647,11.0982143 9.88235294,10.4575 9.88235294,9.66964286 C9.88235294,9.13142857 9.09882353,8.04464286 8.47058824,7.31535714 L8.47058824,7.31535714 Z" id="Fill-752" fill="#9FA9BA"></path>
                        </g>
                    </g>
                </g>
            </g>
        </g>
    </g>
</svg>