<?xml version="1.0" encoding="UTF-8"?>
<svg width="21px" height="14px" viewBox="0 0 21 14" version="1.1" xmlns="http://www.w3.org/2000/svg" xmlns:xlink="http://www.w3.org/1999/xlink">
    <!-- Generator: sketchtool 41.1 (35376) - http://www.bohemiancoding.com/sketch -->
    <title>13C503C0-4227-4D61-A4B7-613A9F34C4E5</title>
    <desc>Created with sketchtool.</desc>
    <defs></defs>
    <g id="Final" stroke="none" stroke-width="1" fill="none" fill-rule="evenodd">
        <g id="Stories-Category-Main-|-left-side-menu" transform="translate(-243.000000, -606.000000)">
            <g id="Group-2" transform="translate(223.441477, 419.798394)">
                <g id="Group-6" transform="translate(0.000000, 34.000000)">
                    <g id="bicycle.13" transform="translate(20.000000, 149.000000)">
                        <g id="Layer_1">
                            <g id="icomoon-ignore"></g>
                            <path d="M4.28133129,17.1253252 C1.92060522,17.1253252 0,15.2045059 0,12.8439939 C0,10.4834819 1.92060522,8.56266258 4.28133129,8.56266258 C6.64205737,8.56266258 8.56266258,10.4834819 8.56266258,12.8439939 C8.56266258,15.2045059 6.64205737,17.1253252 4.28133129,17.1253252 L4.28133129,17.1253252 Z M4.28133129,9.41892884 C2.39240793,9.41892884 0.856266258,10.9550705 0.856266258,12.8439939 C0.856266258,14.7329172 2.39240793,16.2690589 4.28133129,16.2690589 C6.17025466,16.2690589 7.70639633,14.7329172 7.70639633,12.8439939 C7.70639633,10.9550705 6.17025466,9.41892884 4.28133129,9.41892884 L4.28133129,9.41892884 Z" id="Shape" fill="#A9B2C1"></path>
                            <path d="M16.2690589,17.1253252 C13.9085469,17.1253252 11.9877276,15.2045059 11.9877276,12.8439939 C11.9877276,10.4834819 13.9085469,8.56266258 16.2690589,8.56266258 C18.6295709,8.56266258 20.5503902,10.4834819 20.5503902,12.8439939 C20.5503902,15.2045059 18.6295709,17.1253252 16.2690589,17.1253252 L16.2690589,17.1253252 Z M16.2690589,9.41892884 C14.3801355,9.41892884 12.8439939,10.9550705 12.8439939,12.8439939 C12.8439939,14.7329172 14.3801355,16.2690589 16.2690589,16.2690589 C18.1579823,16.2690589 19.6941239,14.7329172 19.6941239,12.8439939 C19.6941239,10.9550705 18.1579823,9.41892884 16.2690589,9.41892884 L16.2690589,9.41892884 Z" id="Shape" fill="#A9B2C1"></path>
                            <path d="M10.2751951,12.8439939 L4.28133129,12.8439939 C4.13747856,12.8439939 4.00304476,12.7720675 3.92426826,12.651334 C3.84549177,12.5299582 3.83179151,12.3792554 3.88830508,12.24632 L6.45710385,6.25245622 C6.52132382,6.10346589 6.66432029,6.00242647 6.82615461,5.99386381 C6.98028254,5.97930728 7.1412606,6.06750271 7.22174962,6.20878664 L10.6468147,12.2026504 C10.7213098,12.3353717 10.7213098,12.4980623 10.6459584,12.6299273 C10.5688944,12.7626486 10.4276105,12.8439939 10.2751951,12.8439939 L10.2751951,12.8439939 Z M4.93038112,11.9877276 L9.53709359,11.9877276 L6.90493111,7.38101515 L4.93038112,11.9877276 L4.93038112,11.9877276 Z" id="Shape" fill="#A9B2C1"></path>
                            <path d="M13.7002601,6.85013007 L6.85013007,6.85013007 C6.61380058,6.85013007 6.42199694,6.65832643 6.42199694,6.42199694 C6.42199694,6.18566745 6.61380058,5.99386381 6.85013007,5.99386381 L13.7002601,5.99386381 C13.9357334,5.99386381 14.1283933,6.18566745 14.1283933,6.42199694 C14.1283933,6.65832643 13.9357334,6.85013007 13.7002601,6.85013007 L13.7002601,6.85013007 Z" id="Shape" fill="#A9B2C1"></path>
                            <path d="M16.2690589,13.272127 C16.0967353,13.272127 15.9342588,13.1668063 15.8691826,12.9964093 L12.4441175,4.00561356 C12.3938119,3.87374855 12.4117935,3.72561449 12.4920684,3.61001855 C12.5734137,3.4944226 12.7027099,3.42506503 12.8439939,3.42506503 L14.5565264,3.42506503 C14.7919996,3.42506503 14.9846595,3.61686868 14.9846595,3.85319816 C14.9846595,4.08952765 14.7919996,4.28133129 14.5565264,4.28133129 L13.4664994,4.28133129 L16.6697915,12.6915785 C16.7545619,12.9124952 16.6441035,13.1599561 16.4234009,13.2447265 C16.3718109,13.2635643 16.3195786,13.272127 16.2690589,13.272127 L16.2690589,13.272127 Z" id="Shape" fill="#A9B2C1"></path>
                            <path d="M10.2751951,12.8439939 C10.2032687,12.8439939 10.1304861,12.8260123 10.0628411,12.7874803 C9.85733717,12.6699578 9.78626707,12.4098669 9.90357554,12.2032926 L13.3286406,6.20942884 C13.4461631,6.00392494 13.706254,5.93114231 13.9128282,6.05016332 C14.1183321,6.16747179 14.1894022,6.428633 14.0720938,6.6341369 L10.6470287,12.6280007 C10.5680382,12.767144 10.4231151,12.8439939 10.2751951,12.8439939 L10.2751951,12.8439939 Z" id="Shape" fill="#A9B2C1"></path>
                            <path d="M1.25271754,8.6029071 C1.11228987,8.6029071 0.975287268,8.5344058 0.893941974,8.40767839 C0.764645769,8.20988089 0.821159342,7.94443835 1.01895685,7.81599841 C2.62359982,6.77220984 4.70518309,6.5675622 6.47936678,7.26627547 C6.69942721,7.35361463 6.80731675,7.60193184 6.72083386,7.82199227 C6.6334947,8.04119643 6.38689002,8.14908598 6.16511706,8.06345936 C4.64695698,7.46407297 2.86078557,7.63960756 1.48562196,8.53354953 C1.41369559,8.58064418 1.3323503,8.6029071 1.25271754,8.6029071 L1.25271754,8.6029071 Z" id="Shape" fill="#A9B2C1"></path>
                            <path d="M7.2782632,6.42199694 C7.04193371,6.42199694 6.85013007,6.2301933 6.85013007,5.99386381 L6.85013007,5.13759755 C6.85013007,4.90126806 7.04193371,4.70946442 7.2782632,4.70946442 C7.51459268,4.70946442 7.70639633,4.90126806 7.70639633,5.13759755 L7.70639633,5.99386381 C7.70639633,6.2301933 7.51459268,6.42199694 7.2782632,6.42199694 L7.2782632,6.42199694 Z" id="Shape" fill="#A9B2C1"></path>
                            <path d="M8.56266258,5.13759755 L5.99386381,5.13759755 C5.75753432,5.13759755 5.56573068,4.94579391 5.56573068,4.70946442 C5.56573068,4.47313493 5.75753432,4.28133129 5.99386381,4.28133129 L8.56266258,4.28133129 C8.79899207,4.28133129 8.99079571,4.47313493 8.99079571,4.70946442 C8.99079571,4.94579391 8.79899207,5.13759755 8.56266258,5.13759755 L8.56266258,5.13759755 Z" id="Shape" fill="#A9B2C1"></path>
                        </g>
                    </g>
                </g>
            </g>
        </g>
    </g>
</svg>