<?xml version="1.0" encoding="UTF-8"?>
<svg width="12px" height="25px" viewBox="0 0 12 25" version="1.1" xmlns="http://www.w3.org/2000/svg" xmlns:xlink="http://www.w3.org/1999/xlink">
    <!-- Generator: sketchtool 41.1 (35376) - http://www.bohemiancoding.com/sketch -->
    <title>223D6FA6-B6AF-46D8-A1ED-154714D5740E</title>
    <desc>Created with sketchtool.</desc>
    <defs></defs>
    <g id="Final" stroke="none" stroke-width="1" fill="none" fill-rule="evenodd">
        <g id="Stories-Category-Main-|-left-side-menu" transform="translate(-248.000000, -629.000000)" fill="#9FA9BA">
            <g id="Group-2" transform="translate(223.441477, 419.798394)">
                <g id="Group-6" transform="translate(0.000000, 34.000000)">
                    <g id="dancer" transform="translate(25.000000, 175.000000)">
                        <g id="Capa_1">
                            <path d="M9.00764106,10.4200848 C8.99484106,10.3884848 8.97004106,10.3392848 8.91964106,10.2920848 C8.73604106,10.1220848 8.53444106,9.98648476 8.31284106,9.86968476 C8.21524106,9.81808476 8.11444106,9.77408476 8.01524106,9.72688476 L8.01524106,10.6576848 C7.98404106,10.6748848 7.95084106,10.6932848 7.92564106,10.7076848 C7.23244106,11.1132848 6.44204106,11.3824848 5.67724106,11.6432848 C4.91444106,11.9032848 4.67084106,12.6096848 4.76764106,13.1928848 C4.87724106,13.8576848 5.38564106,14.3208848 6.00244106,14.3208848 C6.14924106,14.3208848 6.29964106,14.2952848 6.45044106,14.2436848 C6.54884106,14.2108848 6.65564106,14.1748848 6.76924106,14.1372848 C7.13044106,14.0160848 7.56324106,13.8712848 8.01524106,13.6956848 L8.01524106,14.5284848 C8.01524106,14.5816848 8.01044106,14.6324848 8.00764106,14.6832848 C8.00804106,14.6840848 8.01164106,14.6848848 8.01164106,14.6848848 C8.01164106,14.6848848 8.01284106,15.9052848 8.02524106,17.5192848 C7.94284106,17.5040848 7.85844106,17.4956848 7.77124106,17.4956848 L5.95444106,17.4980848 C5.95204106,17.1880848 5.95004106,16.8988848 5.94884106,16.6348848 C5.56644106,16.6520848 5.17964106,16.5848848 4.83284106,16.4308848 L3.48124106,17.9596848 L7.77724106,17.9540848 L7.77884106,17.9540848 C8.33964106,17.9540848 8.79564106,18.4088848 8.79604106,18.9704848 C8.79684106,19.5320848 8.34164106,19.9892848 7.77964106,19.9892848 L1.22244106,19.9976848 L1.22124106,19.9976848 C0.821241061,19.9976848 0.458041061,19.7632848 0.293641061,19.3984848 C0.129241061,19.0336848 0.193641061,18.6056848 0.458841061,18.3056848 L3.62484106,14.7260848 C3.62644106,14.7236848 3.62844106,14.7228848 3.62964106,14.7212848 C3.62364106,14.6476848 3.61884106,14.5732848 3.61884106,14.4968848 L3.61884106,9.23888476 C3.61884106,9.17568476 3.62324106,9.11568476 3.62764106,9.05568476 C3.52364106,9.01368476 3.42124106,8.95008476 3.32524106,8.85648476 C0.967641061,6.55248476 0.696841061,3.51288476 2.27924106,0.675684761 C2.84764106,-0.343515239 4.41004106,0.568884761 3.84124106,1.58848476 C2.66684106,3.69408476 2.82564106,5.77128476 4.52244106,7.49168476 C5.16404106,7.07808476 6.03244106,7.01968476 6.74404106,7.31408476 C8.29724106,7.77848476 10.8232411,8.55608476 10.8316411,10.4552848 C10.8408411,12.4240848 7.71164106,13.3164848 6.30484106,13.7960848 C5.19804106,14.1732848 4.72644106,12.4256848 5.82404106,12.0512848 C6.61724106,11.7808848 7.42764106,11.5032848 8.15484106,11.0784848 C8.38284106,10.9444848 8.88164106,10.7100848 9.00764106,10.4200848 L9.00764106,10.4200848 Z M7.77604106,20.4348848 L5.98884106,20.4364848 C6.00844106,21.6052848 6.03484106,22.7684848 6.07324106,23.6912848 C6.12804106,25.0200848 8.19684106,25.0256848 8.14164106,23.6912848 C8.10444106,22.7872848 8.07804106,21.6100848 8.05884106,20.4060848 C7.96724106,20.4244848 7.87284106,20.4340848 7.77604106,20.4348848 L7.77604106,20.4348848 Z M5.81764106,6.80608476 C6.81724106,6.80608476 7.62764106,5.99568476 7.62764106,4.99608476 C7.62764106,3.99648476 6.81724106,3.18608476 5.81764106,3.18608476 C4.81804106,3.18608476 4.00764106,3.99648476 4.00764106,4.99608476 C4.00764106,5.99568476 4.81804106,6.80608476 5.81764106,6.80608476 L5.81764106,6.80608476 Z" id="Shape"></path>
                        </g>
                    </g>
                </g>
            </g>
        </g>
    </g>
</svg>