<svg width="17px" height="15px" viewBox="0 0 17 15" version="1.1" xmlns="http://www.w3.org/2000/svg" xmlns:xlink="http://www.w3.org/1999/xlink">
    <!-- Generator: sketchtool 40.1 (33804) - http://www.bohemiancoding.com/sketch -->
    <title>6811ABD5-CDC8-4CB1-8381-27407B230793</title>
    <desc>Created with sketchtool.</desc>
    <defs></defs>
    <g id="Final" stroke="none" stroke-width="1" fill="none" fill-rule="evenodd">
        <g id="Stories-Category-Main-|-left-side-menu" transform="translate(-246.000000, -544.000000)" fill="#9FA9BA">
            <g id="Group-2" transform="translate(223.441477, 419.798394)">
                <g id="Group-6" transform="translate(0.000000, 34.000000)">
                    <g id="family-sign.1" transform="translate(22.000000, 91.000000)">
                        <g id="Layer_1">
                            <g id="Group">
                                <path d="M3.78061288,3.91277782 L2.00508126,3.91277782 C1.21614931,3.91277782 0.57387408,4.55447338 0.57387408,5.34398499 L0.57387408,9.13039458 C0.57387408,9.2074908 0.604596632,9.28110899 0.658506015,9.33559804 L1.15354487,9.83063689 L1.15354487,13.4785052 C1.15354487,13.639074 1.28339112,13.7683406 1.44338026,13.7683406 L4.3417342,13.7683406 C4.50114367,13.7683406 4.6315696,13.639074 4.6315696,13.4785052 L4.6315696,9.83063689 L5.12660845,9.33559804 C5.1810975,9.28052932 5.21124038,9.20691113 5.21124038,9.12981491 L5.21124038,5.34340532 C5.21182006,4.55447338 4.57012449,3.91277782 3.78061288,3.91277782 L3.78061288,3.91277782 Z" id="Shape"></path>
                                <ellipse id="Oval" cx="2.8931369" cy="1.88393006" rx="1.73901236" ry="1.73901236"></ellipse>
                                <path d="M8.65332552,6.81113176 L7.44065424,6.81113176 C6.86098345,6.81113176 6.37116163,7.31950304 6.37116163,7.92236066 L6.37116163,10.508272 C6.37116163,10.6033381 6.41869464,10.6920277 6.49752986,10.7470964 L6.95083242,11.0572203 L6.95083242,13.4779255 C6.95083242,13.6367553 7.08067868,13.7677609 7.24066781,13.7677609 L8.97968018,13.7677609 C9.13850997,13.7677609 9.26951557,13.6367553 9.26951557,13.4779255 L9.26951557,11.0572203 L9.72281813,10.7470964 C9.80165335,10.6920277 9.84918636,10.6033381 9.84918636,10.508272 L9.84918636,7.92236066 C9.84918636,7.29573654 9.20633146,6.81113176 8.65332552,6.81113176 L8.65332552,6.81113176 Z" id="Shape"></path>
                                <ellipse id="Oval" cx="8.04698988" cy="4.9787924" rx="1.27933343" ry="1.27933343"></ellipse>
                                <path d="M16.7861067,11.0282367 L16.225565,7.97047334 L16.225565,5.34340532 C16.225565,4.55447338 15.5838695,3.91219815 14.7937782,3.91219815 L13.0182466,3.91219815 C12.2293146,3.91219815 11.5870394,4.55389371 11.5870394,5.34340532 L11.5922564,7.91598428 L10.9853411,11.1041736 C10.9691103,11.1888056 10.9917175,11.2774952 11.0456269,11.342998 C11.1012753,11.4096601 11.1824292,11.4484981 11.2699595,11.4484981 L12.1667102,11.4484981 L12.1667102,13.4773458 C12.1667102,13.6379146 12.2965564,13.7671812 12.4565456,13.7671812 L15.3548995,13.7671812 C15.514309,13.7671812 15.6447349,13.6379146 15.6447349,13.4773458 L15.6447349,11.4484981 L16.5142411,11.4484981 L16.5200378,11.4484981 C16.6881423,11.4508167 16.8156699,11.3203908 16.8156699,11.1586627 C16.8174089,11.112289 16.8058155,11.068234 16.7861067,11.0282367 L16.7861067,11.0282367 Z" id="Shape"></path>
                                <circle id="Oval" cx="13.9068819" cy="1.88393006" r="1.73901236"></circle>
                            </g>
                        </g>
                    </g>
                </g>
            </g>
        </g>
    </g>
</svg>