<svg width="19px" height="17px" viewBox="0 0 19 17" version="1.1" xmlns="http://www.w3.org/2000/svg" xmlns:xlink="http://www.w3.org/1999/xlink">
    <!-- Generator: sketchtool 40.1 (33804) - http://www.bohemiancoding.com/sketch -->
    <title>70BF82F6-0FAF-492E-8999-6B647838649A</title>
    <desc>Created with sketchtool.</desc>
    <defs></defs>
    <g id="Final" stroke="none" stroke-width="1" fill="none" fill-rule="evenodd">
        <g id="Stories-Category-Main-|-left-side-menu" transform="translate(-244.000000, -483.000000)" fill="#9FA9BA">
            <g id="Group-2" transform="translate(223.441477, 419.798394)">
                <g id="Group-6" transform="translate(0.000000, 34.000000)">
                    <path d="M37,35 C37,35.334 36.903,37 35,37 L35,34 L37,34 L37,35 Z M33,34 L33,37 L33,37.624 L32.749,38.199 C32.27,39.293 31.191,40 30,40 C28.809,40 27.73,39.293 27.251,38.199 L27,37.624 L27,37 L27,34 L27,32 L33,32 L33,34 Z M25,37 C23.174,37 23.008,35.464 23,35 L23,34 L25,34 L25,37 Z M38,32 L35,32 L35,31 C35,30.448 34.552,30 34,30 L26,30 C25.448,30 25,30.448 25,31 L25,32 L22,32 C21.448,32 21,32.448 21,33 L21,35 C21,36.607 22.065,39 25,39 L25.419,39 C26.191,40.765 27.95,42 30,42 C32.05,42 33.809,40.765 34.581,39 L35,39 C37.935,39 39,36.607 39,35 L39,33 C39,32.448 38.552,32 38,32 L38,32 Z M35.023,39.022 C35.037,39.022 35.039,39.016 35,39 L35,39.02 C35.008,39.021 35.016,39.022 35.023,39.022 L35.023,39.022 Z M29,44 L28,44 C26.895,44 26,44.896 26,46 L34,46 C34,44.896 33.104,44 32,44 L31,44 L31,42 L30,42 L29,42 L29,44 Z M24.977,39.022 C24.983,39.022 24.991,39.021 25,39.02 L25,39 C24.961,39.016 24.962,39.022 24.977,39.022 L24.977,39.022 Z" id="Icon-1"></path>
                </g>
            </g>
        </g>
    </g>
</svg>