<svg width="16px" height="14px" viewBox="0 0 16 14" version="1.1" xmlns="http://www.w3.org/2000/svg" xmlns:xlink="http://www.w3.org/1999/xlink">
    <!-- Generator: sketchtool 40.1 (33804) - http://www.bohemiancoding.com/sketch -->
    <title>C5356453-F72D-4246-9DAB-EB694D8DD622</title>
    <desc>Created with sketchtool.</desc>
    <defs></defs>
    <g id="Final" stroke="none" stroke-width="1" fill="none" fill-rule="evenodd">
        <g id="Stories-Category-Main-|-left-side-menu" transform="translate(-246.000000, -576.000000)" stroke="#9FA9BA" stroke-width="0.5" fill="#9FA9BA">
            <g id="Group-2" transform="translate(223.441477, 419.798394)">
                <g id="Group-6" transform="translate(0.000000, 34.000000)">
                    <g id="Group-5" transform="translate(22.000000, 122.000000)">
                        <path d="M15.2296459,8.58488157 L10.2036206,8.58488157 L9.2414336,6.42711151 C9.14075291,6.19943588 8.90735679,6.06557634 8.65679918,6.09189061 C8.40967388,6.11934897 8.20831251,6.30240476 8.15911627,6.54609777 L7.47723348,9.88686583 L5.95558227,2.37356999 C5.90180963,2.1081391 5.66841351,1.91593053 5.39726213,1.91478643 C5.13640764,1.87588708 4.89157052,2.10241861 4.83436559,2.3678495 L3.51407575,8.58488157 L1.49931802,8.58488157 C1.1835468,8.58488157 0.927268698,8.84115967 0.927268698,9.15693089 C0.927268698,9.47270212 1.1835468,9.72898022 1.49931802,9.72898022 L3.9774357,9.72898022 C4.24744298,9.72898022 4.48083911,9.54020394 4.53689994,9.27591715 L5.38010065,5.30246254 L6.91319284,12.8718192 C6.96696548,13.1372501 7.2015057,13.3294587 7.47380118,13.3294587 L7.47380118,13.3294587 C7.74609666,13.3294587 7.97949278,13.1383942 8.03440952,12.8718192 L8.92108597,8.52195614 L9.30893542,9.39032702 C9.40160741,9.59626478 9.60525697,9.72898022 9.8317885,9.72898022 L15.2285018,9.72898022 C15.5442731,9.72898022 15.8005512,9.47270212 15.8005512,9.15693089 C15.8005512,8.84115967 15.5454172,8.58488157 15.2296459,8.58488157 L15.2296459,8.58488157 Z" id="Shape"></path>
                        <path d="M9.35241116,3.8071256 C11.4667055,6.36533018 11.5628098,6.36533018 11.8877338,6.36761838 C12.2069373,6.36761838 12.3030416,6.36761838 14.4207682,3.87005103 L14.5260253,3.74877657 C14.9916734,3.19160053 15.1221007,2.50857363 14.8795517,1.87588708 C14.6198414,1.19972478 13.9848666,0.69517727 13.2595081,0.591064293 C12.7709779,0.520130177 12.307618,0.639116436 11.9151921,0.921708803 C11.5261986,0.640260535 11.0639827,0.522418374 10.580029,0.588776096 C9.86267916,0.689456777 9.20596654,1.21116576 8.94511205,1.88503987 C8.70599543,2.50514134 8.82040529,3.16528626 9.26545967,3.70186853 L9.35241116,3.8071256 L9.35241116,3.8071256 Z M10.0125561,2.29691538 C10.1246778,2.00745842 10.4301521,1.76490951 10.7413469,1.72143376 C10.7756699,1.71685737 10.8099928,1.71456917 10.8443158,1.71456917 C11.0765678,1.71456917 11.2836497,1.83126723 11.4598409,2.06237516 C11.5673862,2.20538749 11.7355687,2.28776259 11.914048,2.28776259 C12.0925274,2.28776259 12.261854,2.20424339 12.3682552,2.06237516 C12.5696166,1.79808837 12.8167419,1.68024621 13.095902,1.72372196 C13.4070968,1.7683418 13.7011301,1.99944973 13.8109636,2.2854744 C13.9036356,2.52916741 13.8487189,2.77514862 13.6553662,3.00625655 L13.5478209,3.1309633 C12.6451271,4.19611914 12.1554529,4.7418542 11.8923102,5.02215837 C11.6303116,4.73613371 11.1406374,4.17438127 10.2345112,3.07833476 L10.1418392,2.96735719 C9.96679214,2.75455484 9.92217229,2.52916741 10.0125561,2.29691538 L10.0125561,2.29691538 Z" id="Shape"></path>
                    </g>
                </g>
            </g>
        </g>
    </g>
</svg>