<?xml version="1.0" encoding="UTF-8"?>
<svg width="16px" height="17px" viewBox="0 0 16 17" version="1.1" xmlns="http://www.w3.org/2000/svg" xmlns:xlink="http://www.w3.org/1999/xlink">
    <!-- Generator: sketchtool 41.1 (35376) - http://www.bohemiancoding.com/sketch -->
    <title>1FC720C4-9750-4123-AA0A-EDC60922218A</title>
    <desc>Created with sketchtool.</desc>
    <defs></defs>
    <g id="Final" stroke="none" stroke-width="1" fill="none" fill-rule="evenodd">
        <g id="Stories-Category-Main-|-left-side-menu" transform="translate(-246.000000, -663.000000)" fill="#9FA9BA">
            <g id="Group-2" transform="translate(223.441477, 419.798394)">
                <g id="Group-6" transform="translate(0.000000, 34.000000)">
                    <path d="M30.424,210 C25.879,210 23,214.236 23,219.462 C23,221.867 24.523,225.016 25.245,225.727 C25.968,226.438 27.569,224.905 27.295,224.404 C26.694,223.3 26.281,221.926 26.281,220.435 C26.281,216.788 27.886,213.831 30.424,213.831 C32.959,213.831 34.566,216.788 34.566,220.435 C34.566,221.921 34.156,223.29 33.555,224.392 C33.283,224.899 35.024,226.411 35.6,225.727 C36.177,225.043 37.847,221.868 37.847,219.462 C37.847,214.236 34.967,210 30.424,210 L30.424,210 L30.424,210 Z" id="House-shoe"></path>
                </g>
            </g>
        </g>
    </g>
</svg>