<?xml version="1.0" encoding="UTF-8"?>
<svg width="19px" height="20px" viewBox="0 0 19 20" version="1.1" xmlns="http://www.w3.org/2000/svg" xmlns:xlink="http://www.w3.org/1999/xlink">
    <!-- Generator: sketchtool 41.1 (35376) - http://www.bohemiancoding.com/sketch -->
    <title>D1B40942-CB16-41FB-9B5E-8EF20E3532A5</title>
    <desc>Created with sketchtool.</desc>
    <defs></defs>
    <g id="Final" stroke="none" stroke-width="1" fill="none" fill-rule="evenodd">
        <g id="Stories-Category-Main-|-left-side-menu" transform="translate(-244.000000, -693.000000)" fill="#9FA9BA">
            <g id="Group-2" transform="translate(223.441477, 419.798394)">
                <g id="Group-6" transform="translate(0.000000, 34.000000)">
                    <g id="icon-bulb-white-balance" transform="translate(21.000000, 240.000000)">
                        <g id="Icons">
                            <g id="Group">
                                <path d="M9.13899192,15.8409193 L9.13899192,15.8409193 L8.95133795,15.8384823 C5.68384371,15.7397812 3.03475458,12.9980836 3.04633064,9.7257152 C3.0542511,7.53966833 4.21185674,5.56199048 6.09266128,4.47749677 L6.09266128,1.82779838 C6.09266128,0.820072208 6.91273349,0 7.92045966,0 L10.3575242,0 C11.3652504,0 12.1853226,0.820072208 12.1853226,1.82779838 L12.1853226,4.47749677 C14.0740476,5.56625535 15.2316532,7.55246292 15.2316532,9.74825805 C15.2316532,11.3756079 14.5980164,12.9060844 13.4471127,14.0563788 C12.296209,15.2072826 10.7657325,15.8409193 9.13899192,15.8409193 L9.13899192,15.8409193 Z M7.92045966,1.21853226 C7.58475403,1.21853226 7.31119354,1.49148348 7.31119354,1.82779838 L7.31119354,4.84122865 C7.31119354,5.07214052 7.18020132,5.28355586 6.9736601,5.3871311 C5.30914504,6.21512377 4.27156482,7.87963883 4.2648629,9.73058933 C4.2557239,12.3479966 6.37414223,14.5413547 8.98789392,14.61995 L9.13838265,14.6223871 C10.4403844,14.6223871 11.6644,14.1154777 12.5856104,13.1948765 C13.5062115,12.2742754 14.0131209,11.0502598 14.0131209,9.74825805 C14.0131209,7.88938709 12.9749315,6.2181701 11.3043237,5.3871311 C11.0977825,5.28416513 10.9667903,5.07274978 10.9667903,4.84122865 L10.9667903,1.82779838 C10.9667903,1.49148348 10.6932298,1.21853226 10.3575242,1.21853226 L7.92045966,1.21853226 L7.92045966,1.21853226 Z" id="Shape"></path>
                                <path d="M17.6687177,10.3575242 L16.4501855,10.3575242 C16.1138706,10.3575242 15.8409193,10.0851822 15.8409193,9.74825805 C15.8409193,9.41133388 16.1138706,9.13899192 16.4501855,9.13899192 L17.6687177,9.13899192 C18.0050326,9.13899192 18.2779838,9.41133388 18.2779838,9.74825805 C18.2779838,10.0851822 18.0050326,10.3575242 17.6687177,10.3575242 L17.6687177,10.3575242 Z" id="Shape"></path>
                                <path d="M1.82779838,10.3575242 L0.609266128,10.3575242 C0.272951225,10.3575242 0,10.0851822 0,9.74825805 C0,9.41133388 0.272951225,9.13899192 0.609266128,9.13899192 L1.82779838,9.13899192 C2.16411329,9.13899192 2.43706451,9.41133388 2.43706451,9.74825805 C2.43706451,10.0851822 2.16411329,10.3575242 1.82779838,10.3575242 L1.82779838,10.3575242 Z" id="Shape"></path>
                                <path d="M9.13899192,18.88725 C8.80267702,18.88725 8.52972579,18.614908 8.52972579,18.2779838 L8.52972579,17.0594516 C8.52972579,16.7225274 8.80267702,16.4501855 9.13899192,16.4501855 C9.47530682,16.4501855 9.74825805,16.7225274 9.74825805,17.0594516 L9.74825805,18.2779838 C9.74825805,18.614908 9.47530682,18.88725 9.13899192,18.88725 L9.13899192,18.88725 Z" id="Shape"></path>
                                <g transform="translate(2.437065, 3.046331)" id="Shape">
                                    <path d="M12.7330528,13.3423189 C12.5770807,13.3423189 12.4211086,13.2826109 12.3023017,13.163804 L11.4407994,12.3023017 C11.2025763,12.0640786 11.2025763,11.6790224 11.4407994,11.4407994 C11.6790224,11.2025763 12.0640786,11.2025763 12.3023017,11.4407994 L13.163804,12.3023017 C13.402027,12.5405247 13.402027,12.9255809 13.163804,13.163804 C13.0449971,13.2832201 12.8890249,13.3423189 12.7330528,13.3423189 L12.7330528,13.3423189 Z"></path>
                                    <path d="M1.53230431,2.14157044 C1.37633218,2.14157044 1.22036005,2.08186236 1.10155316,1.96305546 L0.240050854,1.10155316 C0.00182779838,0.863330103 0.00182779838,0.47827391 0.240050854,0.240050854 C0.47827391,0.00182779838 0.863330103,0.00182779838 1.10155316,0.240050854 L1.96305546,1.10155316 C2.20127852,1.33977622 2.20127852,1.72483241 1.96305546,1.96305546 C1.8436393,2.08186236 1.68827644,2.14157044 1.53230431,2.14157044 L1.53230431,2.14157044 Z"></path>
                                    <path d="M0.670802007,13.3423189 C0.514829878,13.3423189 0.358857749,13.2826109 0.240050854,13.163804 C0.00182779838,12.9255809 0.00182779838,12.5405247 0.240050854,12.3023017 L1.10155316,11.4407994 C1.33977622,11.2025763 1.72483241,11.2025763 1.96305546,11.4407994 C2.20127852,11.6790224 2.20127852,12.0640786 1.96305546,12.3023017 L1.10155316,13.163804 C0.982136998,13.2832201 0.82616487,13.3423189 0.670802007,13.3423189 L0.670802007,13.3423189 Z"></path>
                                    <path d="M11.8715505,2.14157044 C11.7155784,2.14157044 11.5596062,2.08186236 11.4407994,1.96305546 C11.2025763,1.72483241 11.2025763,1.33977622 11.4407994,1.10155316 L12.3023017,0.240050854 C12.5405247,0.00182779838 12.9255809,0.00182779838 13.163804,0.240050854 C13.402027,0.47827391 13.402027,0.863330103 13.163804,1.10155316 L12.3023017,1.96305546 C12.1834948,2.08186236 12.0275226,2.14157044 11.8715505,2.14157044 L11.8715505,2.14157044 Z"></path>
                                </g>
                                <path d="M15.8939255,7.55977412 C15.6544839,7.55977412 15.4278369,7.41842437 15.3309636,7.18385692 C15.2024084,6.87313119 15.3498508,6.51610124 15.6605766,6.38754609 L16.7865004,5.92084823 C17.0972261,5.79107455 17.4536468,5.93973548 17.5828112,6.25046121 C17.7113663,6.56118693 17.5639239,6.91821688 17.2531982,7.04677204 L16.1272744,7.51346989 C16.0505069,7.54515173 15.9713023,7.55977412 15.8939255,7.55977412 L15.8939255,7.55977412 Z" id="Shape"></path>
                                <path d="M1.25874382,13.6213628 C1.01930223,13.6213628 0.792655233,13.4800131 0.695781918,13.2454456 C0.567226765,12.9347199 0.714669168,12.5776899 1.02539489,12.4491348 L2.1513187,11.9824369 C2.46204442,11.8532725 2.81846511,12.0013242 2.94762953,12.3120499 C3.07618468,12.6227756 2.92874228,12.9798056 2.61801655,13.1083607 L1.49209275,13.5750586 C1.41593448,13.6067404 1.33672988,13.6213628 1.25874382,13.6213628 L1.25874382,13.6213628 Z" id="Shape"></path>
                                <path d="M12.4034398,18.2383815 C12.1639982,18.2383815 11.9373512,18.0970318 11.8404779,17.8624643 L11.3743893,16.7365405 C11.2458342,16.4252055 11.3932766,16.0687849 11.7040023,15.9402297 C12.0159466,15.8110653 12.371758,15.959117 12.5003131,16.2698427 L12.9664017,17.3957665 C13.0949569,17.7071015 12.9475145,18.0635222 12.6367888,18.1920773 C12.5600212,18.2231499 12.4808166,18.2383815 12.4034398,18.2383815 L12.4034398,18.2383815 Z" id="Shape"></path>
                                <path d="M17.01924,13.6213628 C16.9418632,13.6213628 16.8626586,13.6067404 16.7865004,13.5750586 L15.6605766,13.1083607 C15.3498508,12.9798056 15.2024084,12.6227756 15.3309636,12.3120499 C15.4595187,12.0013242 15.8165487,11.8532725 16.1272744,11.9824369 L17.2531982,12.4491348 C17.5639239,12.5776899 17.7113663,12.9347199 17.5828112,13.2454456 C17.4847193,13.4800131 17.2580723,13.6213628 17.01924,13.6213628 L17.01924,13.6213628 Z" id="Shape"></path>
                                <path d="M2.38405836,7.55977412 C2.30668156,7.55977412 2.22747696,7.54515173 2.1513187,7.51346989 L1.02539489,7.04677204 C0.714669168,6.91821688 0.567226765,6.56118693 0.695781918,6.25046121 C0.824337071,5.93973548 1.18136702,5.79107455 1.49209275,5.92084823 L2.61801655,6.38754609 C2.92874228,6.51610124 3.07618468,6.87313119 2.94762953,7.18385692 C2.85014695,7.41842437 2.62349995,7.55977412 2.38405836,7.55977412 L2.38405836,7.55977412 Z" id="Shape"></path>
                                <path d="M5.87454401,18.2383815 C5.79716721,18.2383815 5.71796261,18.2237592 5.64180435,18.1920773 C5.33107862,18.0635222 5.18363622,17.7071015 5.31219137,17.3957665 L5.77827996,16.2698427 C5.90622584,15.959117 6.261428,15.8110653 6.57459079,15.9402297 C6.88531651,16.0687849 7.03275892,16.4252055 6.90420376,16.7365405 L6.43811517,17.8624643 C6.34063259,18.0964225 6.11398559,18.2383815 5.87454401,18.2383815 L5.87454401,18.2383815 Z" id="Shape"></path>
                            </g>
                        </g>
                    </g>
                </g>
            </g>
        </g>
    </g>
</svg>