<?xml version="1.0" encoding="UTF-8"?>
<svg width="21px" height="21px" viewBox="0 0 21 21" version="1.1" xmlns="http://www.w3.org/2000/svg" xmlns:xlink="http://www.w3.org/1999/xlink">
    <!-- Generator: sketchtool 41.1 (35376) - http://www.bohemiancoding.com/sketch -->
    <title>B98A813A-2043-4B7D-970A-F93C210675F3</title>
    <desc>Created with sketchtool.</desc>
    <defs></defs>
    <g id="Final" stroke="none" stroke-width="1" fill="none" fill-rule="evenodd">
        <g id="Stories-Category-Main-|-left-side-menu" transform="translate(-243.000000, -750.000000)" fill="#9FA9BA">
            <g id="Group-2" transform="translate(223.441477, 419.798394)">
                <g id="Group-6" transform="translate(0.000000, 34.000000)">
                    <g id="wheelchair.3" transform="translate(20.000000, 296.000000)">
                        <g id="Layer_1">
                            <g id="Group">
                                <path d="M19.55232,17.86536 L17.75232,17.86536 L17.75232,11.11536 C17.75232,10.86696 17.55144,10.66536 17.30232,10.66536 L15.63696,10.66536 C15.31584,9.67536 14.80536,8.7732 14.14656,7.99704 C14.14728,7.98624 14.15304,7.97688 14.15304,7.96536 L14.15304,3.91536 C14.15304,3.66696 13.95288,3.46536 13.70304,3.46536 L4.79232,3.46536 L4.79232,1.30536 C4.79232,0.58536 4.79232,0.58536 4.07232,0.58536 L3.35232,0.58536 C3.1032,0.58536 2.90232,0.68544 2.90232,0.93384 C2.90232,1.18224 3.1032,1.30536 3.35232,1.30536 L4.07232,1.30536 L4.07232,5.62536 L4.07232,6.16536 L4.07232,6.264 C1.71288,7.63416 0.15696,10.18224 0.15696,13.104 C0.15696,17.4672 3.72888,21.01536 8.09064,21.01536 C12.45384,21.01536 16.01424,17.37576 16.01424,13.014 C16.01424,12.4884 15.97032,12.10536 15.87312,11.38536 L17.03232,11.38536 L17.03232,18.31536 C17.03232,18.56448 17.0532,18.58536 17.30232,18.58536 L19.55232,18.58536 C19.80144,18.58536 20.00232,18.47448 20.00232,18.22536 C20.00232,17.97624 19.80144,17.86536 19.55232,17.86536 L19.55232,17.86536 Z M8.11368,14.45328 C7.3692,14.45328 6.7644,13.84704 6.7644,13.10328 C6.7644,12.35952 7.3692,11.75328 8.11368,11.75328 C8.85816,11.75328 9.4644,12.35952 9.4644,13.10328 C9.4644,13.84704 8.85816,14.45328 8.11368,14.45328 L8.11368,14.45328 Z M13.43232,7.09992 C11.99232,5.91336 9.98496,5.19192 8.02296,5.19192 C6.97608,5.19192 6.23232,5.40144 4.79232,5.77296 L4.79232,5.62536 L4.79232,4.18536 L13.43232,4.18536 L13.43232,7.09992 L13.43232,7.09992 Z" id="Shape"></path>
                                <circle id="Oval" cx="8.11368" cy="13.10328" r="0.45"></circle>
                            </g>
                        </g>
                    </g>
                </g>
            </g>
        </g>
    </g>
</svg>