<?xml version="1.0" encoding="UTF-8"?>
<svg width="19px" height="25px" viewBox="0 0 19 25" version="1.1" xmlns="http://www.w3.org/2000/svg" xmlns:xlink="http://www.w3.org/1999/xlink">
    <!-- Generator: sketchtool 41.1 (35376) - http://www.bohemiancoding.com/sketch -->
    <title>7674D46C-A099-4D1B-81A0-26B8217BADDF</title>
    <desc>Created with sketchtool.</desc>
    <defs></defs>
    <g id="Final" stroke="none" stroke-width="1" fill="none" fill-rule="evenodd">
        <g id="Stories-Category-Main-|-left-side-menu" transform="translate(-243.000000, -1166.000000)">
            <g id="more.1" transform="translate(243.000000, 1166.000000)">
                <g id="Layer_1">
                    <g id="Rectangle_22_5_" transform="translate(0.395833, 0.390625)">
                        <polygon id="Shape" points="12.6666667 5.46875 12.6666667 0 0 0 0 24.21875 18.2083333 24.21875 18.2083333 5.46875"></polygon>
                    </g>
                    <g id="Rectangle_23_4_" transform="translate(13.062500, 0.390625)" fill="#FFFFFF">
                        <polygon id="Shape" points="0 0 0 5.46875 5.54166667 5.46875"></polygon>
                    </g>
                    <g id="Rectangle_24" transform="translate(4.750000, 13.281250)" fill="#C2CDDC">
                        <path d="M0.791666667,0 C0.354666667,0 0,0.35 0,0.78125 C0,1.2125 0.354666667,1.5625 0.791666667,1.5625 C1.22866667,1.5625 1.58333333,1.2125 1.58333333,0.78125 C1.58333333,0.35 1.22866667,0 0.791666667,0 Z M4.75,0 C4.313,0 3.95833333,0.35 3.95833333,0.78125 C3.95833333,1.2125 4.313,1.5625 4.75,1.5625 C5.187,1.5625 5.54166667,1.2125 5.54166667,0.78125 C5.54166667,0.35 5.187,0 4.75,0 Z M8.70833333,0 C8.27133333,0 7.91666667,0.35 7.91666667,0.78125 C7.91666667,1.2125 8.27133333,1.5625 8.70833333,1.5625 C9.14533333,1.5625 9.5,1.2125 9.5,0.78125 C9.5,0.35 9.14533333,0 8.70833333,0 Z" id="Shape"></path>
                    </g>
                    <g id="icon_14_" fill="#8592A5">
                        <path d="M18.997625,5.85507813 C18.9940625,5.7625 18.9588333,5.66992188 18.8871875,5.59921875 L13.326125,0.111328125 C13.2552708,0.04140625 13.1634375,0.00703125 13.0704167,0.003125 C13.0680417,0.00234375 13.0625,0 13.0625,0 L0.791666667,0 C0.354666667,0 0,0.35 0,0.78125 L0,24.21875 C0,24.65 0.354666667,25 0.791666667,25 L18.2083333,25 C18.6453333,25 19,24.65 19,24.21875 L19,5.859375 C19,5.859375 18.9980208,5.85585937 18.997625,5.85507813 Z M13.4583333,1.32070312 L17.6616875,5.46875 L13.4583333,5.46875 L13.4583333,1.32070312 Z M18.2083333,24.21875 L0.791666667,24.21875 L0.791666667,0.78125 L12.6666667,0.78125 L12.6666667,6.25 L18.2083333,6.25 L18.2083333,24.21875 Z M5.54166667,12.890625 C4.88577083,12.890625 4.35416667,13.4152344 4.35416667,14.0625 C4.35416667,14.7097656 4.88577083,15.234375 5.54166667,15.234375 C6.1975625,15.234375 6.72916667,14.7097656 6.72916667,14.0625 C6.72916667,13.4152344 6.1975625,12.890625 5.54166667,12.890625 Z M5.54166667,14.453125 C5.32277083,14.453125 5.14583333,14.2785156 5.14583333,14.0625 C5.14583333,13.8464844 5.32277083,13.671875 5.54166667,13.671875 C5.7605625,13.671875 5.9375,13.8464844 5.9375,14.0625 C5.9375,14.2785156 5.7605625,14.453125 5.54166667,14.453125 Z M9.5,12.890625 C8.84410417,12.890625 8.3125,13.4152344 8.3125,14.0625 C8.3125,14.7097656 8.84410417,15.234375 9.5,15.234375 C10.1558958,15.234375 10.6875,14.7097656 10.6875,14.0625 C10.6875,13.4152344 10.1558958,12.890625 9.5,12.890625 Z M9.5,14.453125 C9.28110417,14.453125 9.10416667,14.2785156 9.10416667,14.0625 C9.10416667,13.8464844 9.28110417,13.671875 9.5,13.671875 C9.71889583,13.671875 9.89583333,13.8464844 9.89583333,14.0625 C9.89583333,14.2785156 9.71889583,14.453125 9.5,14.453125 Z M12.2708333,14.0625 C12.2708333,14.7097656 12.8024375,15.234375 13.4583333,15.234375 C14.1142292,15.234375 14.6458333,14.7097656 14.6458333,14.0625 C14.6458333,13.4152344 14.1142292,12.890625 13.4583333,12.890625 C12.8024375,12.890625 12.2708333,13.4152344 12.2708333,14.0625 Z M13.4583333,13.671875 C13.6772292,13.671875 13.8541667,13.8464844 13.8541667,14.0625 C13.8541667,14.2785156 13.6772292,14.453125 13.4583333,14.453125 C13.2394375,14.453125 13.0625,14.2785156 13.0625,14.0625 C13.0625,13.8464844 13.2394375,13.671875 13.4583333,13.671875 Z" id="Shape"></path>
                    </g>
                </g>
            </g>
        </g>
    </g>
</svg>