<?xml version="1.0" encoding="UTF-8"?>
<svg width="27px" height="15px" viewBox="0 0 27 15" version="1.1" xmlns="http://www.w3.org/2000/svg" xmlns:xlink="http://www.w3.org/1999/xlink">
    <!-- Generator: sketchtool 41.1 (35376) - http://www.bohemiancoding.com/sketch -->
    <title>A9FAA0C3-498F-42A0-B234-A8AE6A1FEA98</title>
    <desc>Created with sketchtool.</desc>
    <defs></defs>
    <g id="Final" stroke="none" stroke-width="1" fill="none" fill-rule="evenodd">
        <g id="Stories-Category-Main-|-left-side-menu" transform="translate(-240.000000, -784.000000)">
            <g id="Group-2" transform="translate(223.441477, 419.798394)">
                <g id="Group-6" transform="translate(0.000000, 34.000000)">
                    <g id="motorcycle.10" transform="translate(16.000000, 324.000000)">
                        <g id="Group">
                            <g id="icomoon-ignore"></g>
                            <path d="M4.536,13.041 C2.34738,13.041 0.567,14.82138 0.567,17.01 C0.567,19.19862 2.34738,20.979 4.536,20.979 C6.72462,20.979 8.505,19.19862 8.505,17.01 C8.505,14.82138 6.72462,13.041 4.536,13.041 L4.536,13.041 Z" id="Shape" fill="#9FA9BA"></path>
                            <path d="M22.68,13.041 C20.49138,13.041 18.711,14.82138 18.711,17.01 C18.711,19.19862 20.49138,20.979 22.68,20.979 C24.86862,20.979 26.649,19.19862 26.649,17.01 C26.649,14.82138 24.86862,13.041 22.68,13.041 L22.68,13.041 Z" id="Shape" fill="#9FA9BA"></path>
                            <path d="M24.381,11.907 C24.69285,11.907 24.948,11.65185 24.948,11.34 C24.948,10.071054 23.844618,8.379126 23.718744,8.190882 C23.613282,8.033256 23.436378,7.938 23.247,7.938 L22.10733,7.938 C22.10733,7.729344 21.997332,7.530894 21.800016,7.431102 L19.532016,6.297102 C19.250784,6.15762 18.911718,6.272154 18.769968,6.552252 C18.630486,6.83235 18.74502,7.173684 19.025118,7.313166 L20.278188,7.941402 L17.577,7.941402 C15.58116,7.941402 13.924386,9.42354 13.649958,11.343402 L10.34208,11.343402 L5.92515,9.13437 C5.846904,9.09468 5.759586,9.074268 5.67,9.074268 L2.268,9.074268 C2.011716,9.074268 1.787184,9.244368 1.720278,9.492714 C1.653372,9.74106 1.762236,10.00188 1.983366,10.131156 C2.017386,10.151568 5.343408,12.089574 7.601202,13.225842 C9.59931,15.270444 9.639,17.557722 9.639,17.581536 C9.641268,17.892252 9.89415,18.146268 10.206,18.146268 L17.01,18.146268 C17.322984,18.146268 17.577,17.892252 17.577,17.579268 C17.577,13.763358 19.801908,11.907 24.381,11.907 L24.381,11.907 Z" id="Shape" fill="#9FA9BA"></path>
                        </g>
                    </g>
                </g>
            </g>
        </g>
    </g>
</svg>