<?xml version="1.0" encoding="UTF-8"?>
<svg width="16px" height="21px" viewBox="0 0 16 21" version="1.1" xmlns="http://www.w3.org/2000/svg" xmlns:xlink="http://www.w3.org/1999/xlink">
    <!-- Generator: sketchtool 41.1 (35376) - http://www.bohemiancoding.com/sketch -->
    <title>A7E7A90B-9AA4-4002-ACF6-3A328B13EA5A</title>
    <desc>Created with sketchtool.</desc>
    <defs></defs>
    <g id="Final" stroke="none" stroke-width="1" fill="none" fill-rule="evenodd">
        <g id="Stories-Category-Main-|-left-side-menu" transform="translate(-246.000000, -720.000000)" fill="#9FA9BA">
            <g id="Group-2" transform="translate(223.441477, 419.798394)">
                <g id="Group-6" transform="translate(0.000000, 34.000000)">
                    <g id="music-note.1" transform="translate(23.000000, 267.000000)">
                        <g id="music-note">
                            <g id="Page-1">
                                <g id="Icon-Set-Filled">
                                    <path d="M14.4336652,4.479912 L10.2207246,0.266971413 C9.9732768,0.0195236482 9.58660011,0.0340793991 9.32586231,0.266971413 C9.13790327,0.435311836 9.18536768,0.739084028 9.18536768,1.08525776 L9.18536768,12.050801 C7.78105415,11.0103813 5.46352546,11.0084827 3.41116459,12.1938271 C0.859478176,13.6664894 -0.313209057,16.4124634 0.791129433,18.3262282 C1.89610078,20.239993 4.86041109,20.5969254 7.4120975,19.1236302 C9.39421106,17.9794216 10.5384196,16.0688211 10.4358965,14.3752912 L10.4510851,14.3752912 L10.4510851,2.33262232 L13.5388029,5.37477425 C13.7862507,5.62222202 14.1862174,5.62222202 14.4336652,5.37477425 C14.6811129,5.12795935 14.6811129,4.72735977 14.4336652,4.479912" id="music-note"></path>
                                </g>
                            </g>
                        </g>
                    </g>
                </g>
            </g>
        </g>
    </g>
</svg>