<?xml version="1.0" encoding="UTF-8"?>
<svg width="19px" height="20px" viewBox="0 0 19 20" version="1.1" xmlns="http://www.w3.org/2000/svg" xmlns:xlink="http://www.w3.org/1999/xlink">
    <!-- Generator: sketchtool 41.1 (35376) - http://www.bohemiancoding.com/sketch -->
    <title>F3053533-A766-42A5-B14E-83954E52923D</title>
    <desc>Created with sketchtool.</desc>
    <defs></defs>
    <g id="Final" stroke="none" stroke-width="1" fill="none" fill-rule="evenodd">
        <g id="Stories-Category-Main-|-left-side-menu" transform="translate(-244.000000, -811.000000)" fill="#9FA9BA">
            <g id="Group-2" transform="translate(223.441477, 419.798394)">
                <g id="Group-6" transform="translate(0.000000, 34.000000)">
                    <g id="football-161" transform="translate(21.000000, 358.000000)">
                        <g id="Layer_1">
                            <g id="Group">
                                <path d="M4.07582019,8.41834759 C4.38553483,8.41834759 4.69514755,8.30033194 4.93143363,8.0643516 C5.40329239,7.59203423 5.40329239,6.82635931 4.93143363,6.35378716 L4.36989113,5.79290709 L4.93143363,5.23197607 C5.40329239,4.75976061 5.40329239,3.99398378 4.93143363,3.52171736 C4.45901435,3.04934903 3.69282986,3.04924712 3.22102205,3.52171736 L2.66009103,4.08269934 L2.09849758,3.52171736 C1.62674073,3.04924712 0.860607196,3.04934903 0.388748434,3.52171736 C-0.0838746785,3.99403473 -0.0838746785,4.75981157 0.388748434,5.23197607 L0.949577541,5.79290709 L0.388748434,6.35378716 C-0.0838746785,6.82635931 -0.0838746785,7.59208519 0.388748434,8.0643516 C0.624932598,8.30033194 0.934035757,8.41834759 1.24354657,8.41834759 C1.55326121,8.41834759 1.86287393,8.30033194 2.09844662,8.06414778 L2.66004008,7.50336963 L3.2209711,8.06414778 C3.45720622,8.30028098 3.76620746,8.41834759 4.07582019,8.41834759 L4.07582019,8.41834759 Z" id="Shape"></path>
                                <path d="M12.66793,9.53363622 C11.1093693,9.53363622 9.84620443,10.7968521 9.84620443,12.3553618 C9.84620443,13.9138716 11.1093693,15.1770874 12.66793,15.1770874 C14.2263888,15.1770874 15.4902671,13.9138716 15.4902671,12.3553618 C15.4902671,10.7968521 14.2263888,9.53363622 12.66793,9.53363622 L12.66793,9.53363622 Z" id="Shape"></path>
                                <path d="M18.0843183,2.98218814 C18.0322915,2.76439934 17.8916511,2.57794888 17.6971495,2.46767865 L13.5210975,0.104715956 C13.1339288,-0.114499637 12.6421969,0.021605628 12.4231342,0.408672492 L12.1600959,0.872429143 C12.0546155,1.0585229 12.0274047,1.27901241 12.0843742,1.48508118 C12.1412928,1.69125187 12.2784682,1.86623707 12.4646639,1.97161547 L13.9715545,2.8240696 C12.4025477,3.41802054 10.9381549,4.29218221 9.60202007,5.43335683 C8.01838869,6.7861545 6.6073985,8.51669396 5.40915241,10.5767702 C3.64228084,13.6153164 2.87563775,16.4201754 2.68266484,17.2069463 C2.63150434,17.4180598 2.66702114,17.6405876 2.78167365,17.8249488 C2.89632615,18.009361 3.08012686,18.1398101 3.29251426,18.1865374 L3.92300114,18.3255472 C3.98104078,18.3384901 4.03964095,18.3444521 4.09717103,18.3444521 C4.45932009,18.3444521 4.78809252,18.0986881 4.87864252,17.732972 C5.05750043,17.0138206 5.76508475,14.4556938 7.3610986,11.7119829 C9.25943838,8.44800437 11.6302994,6.21987303 14.4271581,5.06713124 L13.5255817,6.41992891 C13.4070565,6.59802247 13.3639472,6.81586224 13.4058336,7.02595659 C13.4482295,7.23569424 13.5719523,7.42010643 13.749893,7.53858068 L14.1937765,7.83346693 C14.5643844,8.07974052 15.0645241,7.97940684 15.3113582,7.60925759 L17.9707359,3.61639485 C18.095274,3.42984249 18.1361922,3.20028269 18.0843183,2.98218814 L18.0843183,2.98218814 Z" id="Shape"></path>
                            </g>
                        </g>
                    </g>
                </g>
            </g>
        </g>
    </g>
</svg>