<svg width="17px" height="15px" viewBox="0 0 17 15" version="1.1" xmlns="http://www.w3.org/2000/svg" xmlns:xlink="http://www.w3.org/1999/xlink">
    <!-- Generator: sketchtool 40.1 (33804) - http://www.bohemiancoding.com/sketch -->
    <title>B6FC91DB-27C1-49F1-AAA1-92A666095B29</title>
    <desc>Created with sketchtool.</desc>
    <defs></defs>
    <g id="Final" stroke="none" stroke-width="1" fill="none" fill-rule="evenodd">
        <g id="Stories-Category-Main-|-left-side-menu" transform="translate(-245.000000, -515.000000)" fill="#9FA9BA">
            <g id="Group-2" transform="translate(223.441477, 419.798394)">
                <g id="Group-6" transform="translate(0.000000, 34.000000)">
                    <path d="M34.56575,65.0389205 C34.48675,64.9289205 34.40375,64.8199205 34.30575,64.7229205 C33.83875,64.2559205 33.21775,63.9979205 32.55775,63.9979205 C31.93575,63.9979205 31.33675,64.2289205 30.87275,64.6479205 L29.53175,65.9859205 L28.19075,64.6479205 C27.72675,64.2289205 27.12775,63.9979205 26.50475,63.9979205 C25.84475,63.9979205 25.22475,64.2559205 24.75675,64.7229205 C24.28475,65.1949205 24.02475,65.8219205 24.02475,66.4899205 C24.02475,67.1579205 24.28475,67.7849205 24.74975,68.2509205 L29.53175,72.9859205 L30.68675,71.8419205 C31.06375,72.3189205 31.57775,72.6739205 32.17475,72.8529205 C32.20075,72.9409205 32.21975,73.0319205 32.25375,73.1159205 L29.50575,75.8659205 L23.31775,69.6739205 C21.56075,67.9169205 21.56075,65.0669205 23.31775,63.3099205 C25.02075,61.6069205 27.73975,61.5699205 29.50575,63.1669205 C31.27275,61.5699205 33.99175,61.6069205 35.69475,63.3099205 C36.36875,63.9839205 36.77875,64.8189205 36.93575,65.6919205 C36.41675,65.2609205 35.75875,64.9919205 35.03175,64.9919205 C34.87175,64.9919205 34.71875,65.0149205 34.56575,65.0389205 M37.03175,70.9919205 L36.03175,70.9919205 L36.03175,71.9919205 C36.03175,72.5439205 35.58375,72.9919205 35.03175,72.9919205 C34.47875,72.9919205 34.03175,72.5439205 34.03175,71.9919205 L34.03175,70.9919205 L33.03175,70.9919205 C32.47875,70.9919205 32.03175,70.5439205 32.03175,69.9919205 C32.03175,69.4399205 32.47875,68.9919205 33.03175,68.9919205 L34.03175,68.9919205 L34.03175,67.9919205 C34.03175,67.4399205 34.47875,66.9919205 35.03175,66.9919205 C35.58375,66.9919205 36.03175,67.4399205 36.03175,67.9919205 L36.03175,68.9919205 L37.03175,68.9919205 C37.58375,68.9919205 38.03175,69.4399205 38.03175,69.9919205 C38.03175,70.5439205 37.58375,70.9919205 37.03175,70.9919205" id="Icon-2"></path>
                </g>
            </g>
        </g>
    </g>
</svg>