<?xml version="1.0" encoding="UTF-8"?>
<svg width="20px" height="21px" viewBox="0 0 20 21" version="1.1" xmlns="http://www.w3.org/2000/svg" xmlns:xlink="http://www.w3.org/1999/xlink">
    <!-- Generator: sketchtool 41.1 (35376) - http://www.bohemiancoding.com/sketch -->
    <title>D9EFF153-86A8-438F-8D8C-E7F343467613</title>
    <desc>Created with sketchtool.</desc>
    <defs></defs>
    <g id="Final" stroke="none" stroke-width="1" fill="none" fill-rule="evenodd">
        <g id="Stories-Category-Main-|-left-side-menu" transform="translate(-243.000000, -871.000000)">
            <g id="Group-2" transform="translate(223.441477, 419.798394)">
                <g id="Group-6" transform="translate(0.000000, 34.000000)">
                    <g id="ski.9" transform="translate(18.000000, 416.000000)">
                        <g id="Group">
                            <g id="icomoon-ignore"></g>
                            <path d="M4.4346528,1.330911 C3.2755428,1.330911 2.2599,2.4296598 2.2599,3.6823734 L2.2599,10.6265358 L6.6339,10.6265358 L6.6339,3.6281358 C6.6339,2.3824206 5.6270052,1.330911 4.4346528,1.330911 L4.4346528,1.330911 Z" id="Shape" fill="#9FA9BA"></path>
                            <polygon id="Shape" fill="#9FA9BA" points="2.2599 11.500461 6.6339 11.500461 6.6339 14.999661 2.2599 14.999661"></polygon>
                            <path d="M2.2599,21.560661 C2.2599,21.801231 2.4558552,21.998061 2.6973,21.998061 L6.1965,21.998061 C6.4379448,21.998061 6.6339,21.801231 6.6339,21.560661 L6.6339,15.874461 L2.2599,15.874461 L2.2599,21.560661 L2.2599,21.560661 Z" id="Shape" fill="#9FA9BA"></path>
                            <polygon id="Shape" fill="#9FA9BA" points="7.5087 11.500461 11.8827 11.500461 11.8827 14.999661 7.5087 14.999661"></polygon>
                            <path d="M7.5087,21.560661 C7.5087,21.801231 7.7046552,21.998061 7.9461,21.998061 L11.4453,21.998061 C11.6867448,21.998061 11.8827,21.801231 11.8827,21.560661 L11.8827,15.874461 L7.5087,15.874461 L7.5087,21.560661 L7.5087,21.560661 Z" id="Shape" fill="#9FA9BA"></path>
                            <path d="M9.6834528,1.330911 C8.5243428,1.330911 7.5087,2.4296598 7.5087,3.6823734 L7.5087,10.6265358 L11.8827,10.6265358 L11.8827,3.6281358 C11.8827,2.3824206 10.8758052,1.330911 9.6834528,1.330911 L9.6834528,1.330911 Z" id="Shape" fill="#9FA9BA"></path>
                            <path d="M16.2567,19.373661 L15.3819,19.373661 L15.3819,7.126461 C15.62247,7.126461 15.8193,6.929631 15.8193,6.689061 C15.8193,6.448491 15.62247,6.251661 15.3819,6.251661 L15.3819,1.877661 C15.3819,1.637091 15.18507,1.440261 14.9445,1.440261 C14.70393,1.440261 14.5071,1.637091 14.5071,1.877661 L14.5071,6.251661 C14.26653,6.251661 14.0697,6.448491 14.0697,6.689061 C14.0697,6.929631 14.26653,7.126461 14.5071,7.126461 L14.5071,19.373661 L13.6323,19.373661 C13.39173,19.373661 13.1949,19.570491 13.1949,19.811061 C13.1949,20.051631 13.39173,20.248461 13.6323,20.248461 L14.5071,20.248461 L14.5071,21.123261 C14.5071,21.363831 14.70393,21.560661 14.9445,21.560661 C15.18507,21.560661 15.3819,21.363831 15.3819,21.123261 L15.3819,20.248461 L16.2567,20.248461 C16.49727,20.248461 16.6941,20.051631 16.6941,19.811061 C16.6941,19.570491 16.49727,19.373661 16.2567,19.373661 L16.2567,19.373661 Z" id="Shape" fill="#9FA9BA"></path>
                            <path d="M20.6307,19.373661 L19.7559,19.373661 L19.7559,7.126461 C19.99647,7.126461 20.1933,6.929631 20.1933,6.689061 C20.1933,6.448491 19.99647,6.251661 19.7559,6.251661 L19.7559,1.877661 C19.7559,1.637091 19.55907,1.440261 19.3185,1.440261 C19.07793,1.440261 18.8811,1.637091 18.8811,1.877661 L18.8811,6.251661 C18.64053,6.251661 18.4437,6.448491 18.4437,6.689061 C18.4437,6.929631 18.64053,7.126461 18.8811,7.126461 L18.8811,19.373661 L18.0063,19.373661 C17.76573,19.373661 17.5689,19.570491 17.5689,19.811061 C17.5689,20.051631 17.76573,20.248461 18.0063,20.248461 L18.8811,20.248461 L18.8811,21.123261 C18.8811,21.363831 19.07793,21.560661 19.3185,21.560661 C19.55907,21.560661 19.7559,21.363831 19.7559,21.123261 L19.7559,20.248461 L20.6307,20.248461 C20.87127,20.248461 21.0681,20.051631 21.0681,19.811061 C21.0681,19.570491 20.87127,19.373661 20.6307,19.373661 L20.6307,19.373661 Z" id="Shape" fill="#9FA9BA"></path>
                        </g>
                    </g>
                </g>
            </g>
        </g>
    </g>
</svg>