<?xml version="1.0" encoding="UTF-8"?>
<svg width="23px" height="22px" viewBox="0 0 23 22" version="1.1" xmlns="http://www.w3.org/2000/svg" xmlns:xlink="http://www.w3.org/1999/xlink">
    <!-- Generator: sketchtool 41.1 (35376) - http://www.bohemiancoding.com/sketch -->
    <title>911EA2BA-AA76-441C-ABE6-22B9BED907E2</title>
    <desc>Created with sketchtool.</desc>
    <defs></defs>
    <g id="Final" stroke="none" stroke-width="1" fill="none" fill-rule="evenodd">
        <g id="Stories-Category-Main-|-left-side-menu" transform="translate(-240.000000, -1052.000000)" fill="#9FA9BA">
            <g id="Group-2" transform="translate(223.441477, 419.798394)">
                <g id="Group-6" transform="translate(0.000000, 34.000000)">
                    <g id="Style" transform="translate(17.000000, 599.000000)">
                        <g id="Capa_1">
                            <path d="M21.9818754,10.7808184 C21.9045726,10.4804394 21.6024291,10.3005717 21.307795,10.3794887 L18.0643905,11.2442025 L17.5577258,7.32938267 L19.2550744,8.03367701 C19.5141492,8.14114794 19.8113233,8.03435151 19.9467136,7.78523479 L21.6882352,4.5790936 C21.81457,4.34661463 21.7637711,4.05601593 21.5664281,3.88210638 L17.8297213,0.588729363 C17.3988134,0.209096165 16.854933,0 16.2983528,0 L13.7515569,0 C13.4466526,0 13.1993941,0.251589902 13.1993941,0.562086465 C13.1993941,1.13653883 12.790904,1.60408235 12.2887671,1.60408235 L9.71138143,1.60408235 C9.20924454,1.60408235 8.80075447,1.13665125 8.80075447,0.562086465 C8.80075447,0.251589902 8.55349595,0 8.24859163,0 L5.7016853,0 C5.14510516,0 4.60122476,0.209096165 4.17031688,0.588729363 L0.433610066,3.88199396 C0.236377499,4.05590351 0.185578518,4.34650222 0.311802943,4.57898118 L2.05332455,7.78512237 C2.18871487,8.03435151 2.48599935,8.14114794 2.74496372,8.03356459 L4.44242273,7.32927025 L3.9357581,11.2440901 L0.692243141,10.3793762 C0.397498616,10.3003469 0.0954655419,10.4802146 0.0181627441,10.780706 C-0.0591400537,11.0809726 0.117441623,11.388209 0.412407013,11.4669011 L3.79020798,12.3674761 L2.75523395,20.364505 C2.73447263,20.5250369 2.78273166,20.6868054 2.88753217,20.8085534 C2.99233267,20.9301889 3.14362529,21 3.30264819,21 L18.6971691,21 L18.6993777,21 C19.004282,21 19.2515406,20.7484101 19.2515406,20.4379135 C19.2515406,20.3953074 19.2469024,20.3538254 19.2380678,20.3138048 L18.2096093,12.3673637 L21.5874103,11.4667887 C21.8825965,11.3883214 22.0590678,11.0809726 21.9818754,10.7808184 Z" id="Shape"></path>
                        </g>
                    </g>
                </g>
            </g>
        </g>
    </g>
</svg>