<?xml version="1.0" encoding="UTF-8"?>
<svg width="20px" height="24px" viewBox="0 0 20 24" version="1.1" xmlns="http://www.w3.org/2000/svg" xmlns:xlink="http://www.w3.org/1999/xlink">
    <!-- Generator: sketchtool 41.1 (35376) - http://www.bohemiancoding.com/sketch -->
    <title>741D5791-0FF7-4859-8402-68C9AA75BC0E</title>
    <desc>Created with sketchtool.</desc>
    <defs></defs>
    <g id="Final" stroke="none" stroke-width="1" fill="none" fill-rule="evenodd">
        <g id="Stories-Category-Main-|-left-side-menu" transform="translate(-242.000000, -1019.000000)" stroke="#9FA9BA">
            <g id="Travel-icon" transform="translate(242.000000, 1019.000000)">
                <g id="Layer_1">
                    <g id="Group">
                        <path d="M16.6,12.5 C16.8,13.3 17,14.1 17,14.9 C17,19.5 13.3,23.1 8.8,23.1 C4.2,23.1 0.6,19.4 0.6,14.9 C0.6,10.3 4.3,6.7 8.8,6.7 L9.6,6.7" id="Shape"></path>
                        <path d="M3.4,10.2 C3.4,10.2 2.3,12.7 3.6,12.3 C4.6,12 4.7,11.5 4.7,11.5 L5.3,10.5 C5.3,10.5 5.4,11.9 5.5,12.1 C5.6,12.3 6.1,12.9 6.3,12.1 C6.6,10.6 6.7,10.2 7.2,10.2 C7.8,10.2 8.9,9.8 9,11.1 C9.1,12.4 8.9,11.7 8.2,12 C7.5,12.3 7.3,13.6 8,13.7 C8.7,13.8 10.2,14.5 10.2,14.5 C10.2,14.5 11.4,15.3 11.3,18.3 C11.3,18.3 11.3,20.1 12,19.7 C12.3,19.5 13,18.6 13.5,17.7" id="Shape"></path>
                        <path d="M19.4,5.8 C19.4,8.6 14.4,16.1 14.4,16.1 C14.4,16.1 9.4,8.5 9.4,5.8 C9.4,3.1 11.6,0.8 14.4,0.8 C17.2,0.8 19.4,3 19.4,5.8 Z" id="Shape"></path>
                        <circle id="Oval" cx="14.5" cy="5.4" r="1.8"></circle>
                    </g>
                </g>
            </g>
        </g>
    </g>
</svg>