<?xml version="1.0" encoding="UTF-8"?>
<svg width="20px" height="20px" viewBox="0 0 20 20" version="1.1" xmlns="http://www.w3.org/2000/svg" xmlns:xlink="http://www.w3.org/1999/xlink">
    <!-- Generator: sketchtool 41.1 (35376) - http://www.bohemiancoding.com/sketch -->
    <title>90223D54-0D1F-40AE-8480-0A3CE0D82512</title>
    <desc>Created with sketchtool.</desc>
    <defs></defs>
    <g id="Final" stroke="none" stroke-width="1" fill="none" fill-rule="evenodd">
        <g id="Stories-Category-Main-|-left-side-menu" transform="translate(-243.000000, -963.000000)" fill="#9FA9BA">
            <g id="Group-2" transform="translate(223.441477, 419.798394)">
                <g id="winter-33" transform="translate(19.957720, 543.600803)">
                    <g id="Capa_1">
                        <path d="M18.3350293,8.85653214 L17.6796702,8.85653214 L16.8322949,8.017088 C16.7321127,7.91648829 16.5956143,7.86389258 16.4528545,7.86389258 C16.3109296,7.86389258 16.1744312,7.91440115 16.0738315,8.01500087 L15.2268737,8.85653214 L12.5691209,8.85653214 C12.5002456,8.61525978 12.4029853,8.38609278 12.2810969,8.17237056 L14.1632717,6.29228286 L15.3608675,6.29228286 C15.5036273,6.29228286 15.6397082,6.24177429 15.7407254,6.14117457 C15.8409077,6.04057485 15.8976776,5.90699846 15.8976776,5.76465611 L15.8972602,4.56872999 L16.3618556,4.10496946 C16.6861958,3.78062929 16.6861958,3.25425482 16.3618556,2.92991465 C16.037098,2.60557447 15.5107235,2.5980608 15.1859659,2.9228184 L14.7226228,3.37990011 L13.5241921,3.37990011 C13.2274021,3.37990011 12.9965654,3.63494753 12.9965654,3.93090273 L12.9965654,5.12933341 L11.1173125,7.01025596 C10.9031729,6.8883675 10.6740059,6.79110719 10.4318987,6.72264929 L10.4318987,4.06573139 L11.2738474,3.21877359 C11.3736122,3.11817387 11.4270428,2.9816755 11.4270428,2.83933316 C11.4270428,2.69699082 11.375282,2.56049244 11.2746822,2.45989272 L10.4318987,1.61251749 L10.4318987,0.956323473 C10.4318987,0.497154629 10.0524583,0.12481044 9.59287199,0.12481044 C9.13370315,0.12481044 8.75384529,0.497154629 8.75384529,0.956323473 L8.75384529,1.61293492 L7.90813976,2.45989272 C7.80795747,2.56049244 7.75202235,2.69699082 7.75202235,2.83933316 C7.75202235,2.9816755 7.80754004,3.11817387 7.90772233,3.21877359 L8.75384529,4.06573139 L8.75384529,6.72014474 C8.50464183,6.79027234 8.26796116,6.89003721 8.04839497,7.01651735 L6.15745419,5.12891598 L6.15745419,3.93090273 C6.15745419,3.63494753 5.93997513,3.37990011 5.64401994,3.37990011 L4.44558926,3.37990011 L3.98099387,2.9228184 C3.65581885,2.59764337 3.12944438,2.60515705 2.80510421,2.92991465 C2.47992918,3.25467225 2.47992918,3.78104671 2.80510421,4.10496946 L3.26928216,4.56872999 L3.26886474,5.76465611 C3.26886474,5.90699846 3.3256347,6.04057485 3.42623442,6.14117457 C3.52683414,6.24177429 3.66333252,6.29228286 3.80567486,6.29228286 L5.00327069,6.29228286 L6.89128949,8.17863195 C6.77148816,8.39026705 6.67464528,8.61776434 6.60702223,8.85653214 L3.9400861,8.85653214 L3.09271087,8.01500087 C2.99211115,7.91440115 2.85561278,7.86389258 2.71368786,7.86389258 C2.57134552,7.86389258 2.43484715,7.91648829 2.33424743,8.017088 L1.4868722,8.85653214 L0.831513033,8.85653214 C0.372344189,8.85653214 0,9.23639 0,9.69555884 C0,10.1551451 0.372761616,10.5341681 0.831513033,10.5341681 L1.4868722,10.5341681 L2.33424743,11.3819608 C2.43484715,11.4821431 2.57134552,11.5393305 2.71368786,11.5393305 C2.85561278,11.5393305 2.99211115,11.4821431 3.09271087,11.3819608 L3.9400861,10.535003 L6.60326539,10.535003 C6.67047101,10.7754405 6.76606162,11.0037726 6.88586295,11.2174948 L5.00452297,13.0992522 L3.80650971,13.0992522 C3.66333252,13.0992522 3.51431136,13.1572745 3.41412906,13.2578742 C3.31311192,13.3584739 3.24423659,13.4962246 3.24423659,13.6389844 L3.24423659,14.8369976 L2.96330874,15.1308657 C2.63855114,15.4552058 2.65107393,15.9819977 2.97583153,16.3063379 C3.13862776,16.4691341 3.35068028,16.5501148 3.56356765,16.5501148 C3.7760376,16.5501148 3.9893424,16.4687167 4.15130377,16.3063379 L4.44600668,16.0112176 L5.64276766,16.0112176 C5.78511,16.0112176 5.91117272,15.9552825 6.01052016,15.8546827 C6.1115373,15.7545004 6.15703676,15.6180021 6.15703676,15.4756597 L6.15703676,14.2776465 L8.04756012,12.3904625 C8.26712631,12.5173601 8.5042244,12.6167075 8.75301043,12.6864177 L8.75301043,15.3412485 L7.90772233,16.1882063 C7.80712262,16.2883886 7.7511875,16.424887 7.7511875,16.5672293 C7.7511875,16.7099891 7.80670519,16.84607 7.90730491,16.9462523 L8.75301043,17.7932101 L8.75301043,18.2089666 C8.75301043,18.6681355 9.13286829,19.0404797 9.59203714,19.0404797 C10.0516234,19.0404797 10.4310638,18.667718 10.4310638,18.2089666 L10.4310638,17.7932101 L11.2730125,16.9462523 C11.3727774,16.84607 11.4266254,16.7099891 11.4266254,16.5672293 C11.4266254,16.424887 11.3744471,16.2883886 11.2738474,16.1882063 L10.4310638,15.3416659 L10.4310638,12.6843306 C10.6727536,12.6158727 10.902338,12.5190298 11.1164777,12.3971413 L12.9957305,14.2780639 L12.9957305,15.4756597 C12.9957305,15.6184195 13.0479088,15.7545004 13.1480911,15.8555176 C13.2482734,15.9556999 13.3814324,16.0120524 13.5229399,16.0120524 L14.7197008,16.0120524 L15.0139863,16.3063379 C15.1767826,16.4691341 15.3892525,16.5501148 15.6017224,16.5501148 C15.8146098,16.5501148 16.0274972,16.4695516 16.1894586,16.3071728 C16.5137987,15.9824152 16.5204776,15.4552058 16.1961374,15.1312831 L15.9081133,14.837415 L15.9081133,13.6394018 C15.9081133,13.496642 15.8467516,13.3588914 15.7453171,13.2582916 C15.6442999,13.1572745 15.502375,13.0996697 15.3587804,13.0996697 L14.1611846,13.0996697 L12.2852711,11.2250085 C12.4067421,11.0096166 12.503585,10.7783625 12.5720429,10.5354204 L15.225204,10.5354204 L16.0729966,11.3823782 C16.1731789,11.4829779 16.3096773,11.5397479 16.4516022,11.5397479 C16.5939446,11.5397479 16.7308604,11.4825605 16.8310427,11.3819608 L17.6780005,10.5345855 L18.3333596,10.5345855 C18.7925285,10.5345855 19.1648727,10.1551451 19.1648727,9.69597627 C19.1661249,9.23639 18.7937808,8.85653214 18.3350293,8.85653214 Z M8.15316895,9.70307251 C8.15316895,8.91121497 8.79558791,8.26879602 9.58786288,8.26879602 C10.3801378,8.26879602 11.0225568,8.91121497 11.0225568,9.70307251 C11.0225568,10.4957649 10.3801378,11.1381839 9.58786288,11.1381839 C8.79558791,11.1381839 8.15316895,10.4961823 8.15316895,9.70307251 Z" id="Shape"></path>
                    </g>
                </g>
            </g>
        </g>
    </g>
</svg>