<?xml version="1.0" encoding="UTF-8"?>
<svg width="17px" height="17px" viewBox="0 0 17 17" version="1.1" xmlns="http://www.w3.org/2000/svg" xmlns:xlink="http://www.w3.org/1999/xlink">
    <!-- Generator: Sketch 40.2 (33826) - http://www.bohemiancoding.com/sketch -->
    <title>Instagram Icon</title>
    <desc>Created with Sketch.</desc>
    <defs></defs>
    <g id="Symbols" stroke="none" stroke-width="1" fill="none" fill-rule="evenodd" opacity="0.5">
        <g id="Footer" transform="translate(-1246.000000, -190.000000)" fill="#ffffff">
            <g id="4">
                <g transform="translate(1126.000000, 50.000000)">
                    <g id="Group-3">
                        <g id="Social" transform="translate(4.939105, 140.924293)">
                            <path d="M128.021333,7.104 C128.384,7.44533333 128.416,7.79733333 128.416,8.14933333 C128.416,10.6346667 126.442667,12.6293333 124.010667,12.6293333 C121.578667,12.6293333 119.594667,10.6346667 119.594667,8.14933333 C119.594667,7.79733333 119.637333,7.44533333 119.733333,7.104 L116,7.104 L116,14.5706667 C116,15.3493333 116.608,16 117.333333,16 L130.666667,16 C131.392,16 132,15.3493333 132,14.5706667 L132,7.104 L128.021333,7.104 L128.021333,7.104 Z M126.592,8.224 C126.592,9.78133333 125.365333,11.0506667 123.872,11.0506667 C122.378667,11.0506667 121.162667,9.78133333 121.162667,8.224 C121.162667,6.66666667 122.378667,5.408 123.872,5.408 C125.365333,5.408 126.592,6.66666667 126.592,8.224 L126.592,8.224 Z M130.912,3.28533333 C130.912,3.54133333 130.666667,3.75466667 130.357333,3.75466667 L128.234667,3.75466667 C127.925333,3.75466667 127.658667,3.54133333 127.658667,3.28533333 L127.658667,1.54666667 C127.658667,1.29066667 127.925333,1.09866667 128.234667,1.09866667 L130.357333,1.09866667 C130.666667,1.09866667 130.912,1.29066667 130.912,1.54666667 L130.912,3.28533333 L130.912,3.28533333 Z M130.570667,0 L117.333333,0 C116.608,0 116,0.650666667 116,1.376 L116,4.832 L121.162667,4.832 C121.973333,4.24533333 122.837333,3.744 123.872,3.744 C124.885333,3.744 125.792,4.24533333 126.592,4.832 L132,4.832 L132,1.376 C132,0.650666667 131.349333,0 130.570667,0 L130.570667,0 Z" id="Instagram-Icon"></path>
                        </g>
                    </g>
                </g>
            </g>
        </g>
    </g>
</svg>