<?xml version="1.0" encoding="UTF-8"?>
<svg width="19px" height="14px" viewBox="0 0 19 14" version="1.1" xmlns="http://www.w3.org/2000/svg" xmlns:xlink="http://www.w3.org/1999/xlink">
    <!-- Generator: Sketch 40.2 (33826) - http://www.bohemiancoding.com/sketch -->
    <title>Twitter</title>
    <desc>Created with Sketch.</desc>
    <defs></defs>
    <g id="Symbols" stroke="none" stroke-width="1" fill="none" fill-rule="evenodd" opacity="0.5">
        <g id="Footer" transform="translate(-1164.000000, -191.000000)" fill="#969595">
            <g id="4">
                <g transform="translate(1126.000000, 50.000000)">
                    <g id="Group-3">
                        <g id="Social" transform="translate(4.939105, 140.924293)">
                            <path d="M48.1102362,3.0324659 C48.1102362,3.0324659 48.1102362,2.88728976 48.1102362,3.0324659 C47.3622047,2.30658522 46.4645669,2.01623295 45.5669291,2.16140909 L45.5669291,2.16140909 L45.5669291,2.16140909 C46.4645669,2.01623295 46.9133858,1.72588068 47.0629921,1.58070454 C47.0629921,1.43552841 47.0629921,1.29035227 46.9133858,1.29035227 C46.4645669,1.29035227 46.015748,1.43552841 45.7165354,1.58070454 C46.1653543,1.29035227 46.3149606,1.14517614 46.3149606,1 C45.8661417,1 45.4173228,1.29035227 44.8188976,1.72588068 C44.9685039,1.43552841 45.1181102,1.29035227 44.9685039,1.14517614 C44.6692913,1.29035227 44.519685,1.43552841 44.3700787,1.72588068 C43.9212598,2.16140909 43.6220472,2.45176136 43.4724409,2.88728976 L43.4724409,2.88728976 C42.8740157,3.90352271 42.4251969,4.77457953 42.1259843,5.79081248 L41.976378,5.79081248 C41.6771654,5.35528407 41.2283465,4.91975566 40.6299213,4.62940339 C40.0314961,4.19387499 39.2834646,3.90352271 38.3858268,3.46799431 C37.488189,3.0324659 36.5905512,2.59693749 35.5433071,2.30658522 C35.5433071,3.32281817 35.992126,4.19387499 37.0393701,4.77457953 L37.0393701,4.77457953 C36.7401575,4.77457953 36.2913386,4.77457953 35.992126,4.91975566 C35.992126,5.79081248 36.7401575,6.51669316 38.0866142,6.80704543 L38.0866142,6.80704543 C37.6377953,6.80704543 37.1889764,6.95222156 36.7401575,7.24257383 C37.1889764,8.11363065 37.9370079,8.40398292 39.1338583,8.40398292 C38.984252,8.54915906 38.6850394,8.69433519 38.6850394,8.69433519 C38.5354331,8.83951133 38.3858268,9.1298636 38.5354331,9.42021587 C38.8346457,9.85574428 39.1338583,10.0009204 39.8818898,10.0009204 L39.8818898,10.0009204 L39.8818898,10.0009204 C38.8346457,11.0171534 37.488189,11.5978579 35.992126,11.4526818 L35.992126,11.4526818 C35.0944882,11.4526818 34.0472441,11.0171534 33,10.1460965 C34.0472441,11.5978579 35.5433071,12.759267 37.3385827,13.4851477 C39.4330709,14.0658522 41.5275591,14.2110283 43.4724409,13.6303238 L43.4724409,13.6303238 C45.4173228,13.0496193 47.2125984,11.8882102 48.5590551,10.2912727 C49.1574803,9.42021587 49.6062992,8.54915906 49.7559055,7.67810224 C50.8031496,7.67810224 51.5511811,7.38774997 52,6.80704543 L52,6.80704543 C51.7007874,6.95222156 50.9527559,6.95222156 49.9055118,6.66186929 L49.9055118,6.66186929 L49.9055118,6.66186929 C50.9527559,6.51669316 51.7007874,6.22634088 51.8503937,5.64563634 C51.1023622,5.93598861 50.3543307,5.93598861 49.6062992,5.64563634 C49.4566929,4.62940339 49.007874,3.75834658 48.1102362,3.0324659 L48.1102362,3.0324659 Z" id="Twitter"></path>
                        </g>
                    </g>
                </g>
            </g>
        </g>
    </g>
</svg>