<?xml version="1.0" encoding="UTF-8"?>
<svg width="55px" height="55px" viewBox="0 0 55 55" version="1.1" xmlns="http://www.w3.org/2000/svg" xmlns:xlink="http://www.w3.org/1999/xlink">
    <!-- Generator: sketchtool 41.2 (35397) - http://www.bohemiancoding.com/sketch -->
    <title>F6416775-62BA-40E1-9A67-ADE2FBCD87CA</title>
    <desc>Created with sketchtool.</desc>
    <defs></defs>
    <g id="FIRST-USER-EXPIRIENCE" stroke="none" stroke-width="1" fill="none" fill-rule="evenodd" opacity="0.5">
        <g id="HOMEPAGE-FUE-New" transform="translate(-933.000000, -615.000000)">
            <g id="ic_explore_black_24px" transform="translate(928.000000, 610.000000)">
                <g id="Group">
                    <path d="M32.5,29.5208333 C30.8479167,29.5208333 29.5208333,30.8479167 29.5208333,32.5 C29.5208333,34.1520833 30.8479167,35.4791667 32.5,35.4791667 C34.1520833,35.4791667 35.4791667,34.1520833 35.4791667,32.5 C35.4791667,30.8479167 34.1520833,29.5208333 32.5,29.5208333 Z M32.5,5.41666667 C17.55,5.41666667 5.41666667,17.55 5.41666667,32.5 C5.41666667,47.45 17.55,59.5833333 32.5,59.5833333 C47.45,59.5833333 59.5833333,47.45 59.5833333,32.5 C59.5833333,17.55 47.45,5.41666667 32.5,5.41666667 Z M38.43125,38.43125 L16.25,48.75 L26.56875,26.56875 L48.75,16.25 L38.43125,38.43125 Z" id="Shape" fill="#000000"></path>
                    <polygon id="Shape" points="0 0 65 0 65 65 0 65"></polygon>
                </g>
            </g>
        </g>
    </g>
</svg>