<?xml version="1.0" encoding="UTF-8"?>
<svg width="55px" height="55px" viewBox="0 0 55 55" version="1.1" xmlns="http://www.w3.org/2000/svg" xmlns:xlink="http://www.w3.org/1999/xlink">
    <!-- Generator: sketchtool 41.2 (35397) - http://www.bohemiancoding.com/sketch -->
    <title>33F9675D-399E-4481-9280-6E6D6725C91E</title>
    <desc>Created with sketchtool.</desc>
    <defs></defs>
    <g id="FIRST-USER-EXPIRIENCE" stroke="none" stroke-width="1" fill="none" fill-rule="evenodd" opacity="0.5">
        <g id="HOMEPAGE-FUE-New" transform="translate(-402.000000, -615.000000)">
            <g id="ic_card_membership_black_24px" transform="translate(397.000000, 610.000000)">
                <g id="Group">
                    <polygon id="Shape" points="0 0 65 0 65 65 0 65"></polygon>
                    <path d="M54.1666667,5.41666667 L10.8333333,5.41666667 C7.82708333,5.41666667 5.41666667,7.82708333 5.41666667,10.8333333 L5.41666667,40.625 C5.41666667,43.63125 7.82708333,46.0416667 10.8333333,46.0416667 L21.6666667,46.0416667 L21.6666667,59.5833333 L32.5,54.1666667 L43.3333333,59.5833333 L43.3333333,46.0416667 L54.1666667,46.0416667 C57.1729167,46.0416667 59.5833333,43.63125 59.5833333,40.625 L59.5833333,10.8333333 C59.5833333,7.82708333 57.1729167,5.41666667 54.1666667,5.41666667 Z M54.1666667,40.625 L10.8333333,40.625 L10.8333333,35.2083333 L54.1666667,35.2083333 L54.1666667,40.625 Z M54.1666667,27.0833333 L10.8333333,27.0833333 L10.8333333,10.8333333 L54.1666667,10.8333333 L54.1666667,27.0833333 Z" id="Shape" fill="#000000"></path>
                </g>
            </g>
        </g>
    </g>
</svg>