<?xml version="1.0" standalone="no"?>
<!DOCTYPE svg PUBLIC "-//W3C//DTD SVG 20010904//EN"
 "http://www.w3.org/TR/2001/REC-SVG-20010904/DTD/svg10.dtd">
<svg version="1.0" xmlns="http://www.w3.org/2000/svg"
 width="16.000000pt" height="16.000000pt" viewBox="0 0 16.000000 16.000000"
 preserveAspectRatio="xMidYMid meet">
<metadata>
Created by potrace 1.11, written by Peter Selinger 2001-2013
</metadata>
<g transform="translate(0.000000,16.000000) scale(0.001770,-0.001770)"
fill="#000000" stroke="none">
<path d="M1040 9030 c-25 -4 -58 -10 -75 -13 -181 -30 -403 -123 -543 -227
-219 -163 -335 -360 -409 -690 -11 -51 -15 -7026 -3 -7075 5 -22 19 -82 30
-134 90 -391 318 -672 655 -809 64 -26 198 -60 272 -70 74 -9 7005 -9 7058 0
123 22 166 32 249 59 379 124 627 374 733 739 l28 95 2 3560 c3 3510 2 3561
-17 3647 -43 189 -99 322 -197 471 -147 221 -385 378 -648 428 -27 5 -61 12
-75 16 -34 10 -7003 13 -7060 3z"/>
</g>
</svg>
